<?xml version="1.0" standalone="no"?>
<!DOCTYPE svg PUBLIC "-//W3C//DTD SVG 1.1//EN" "http://www.w3.org/Graphics/SVG/1.1/DTD/svg11.dtd">
<svg xmlns="http://www.w3.org/2000/svg">
<metadata>Generated by Fontastic.me</metadata>
<defs>
<font id="aircheck" horiz-adv-x="512">
<font-face font-family="aircheck" units-per-em="512" ascent="480" descent="-32"/>
<missing-glyph horiz-adv-x="512" />

<glyph glyph-name="alert" unicode="&#97;" d="M256 462c-114 0-206-92-206-206 0-114 92-206 206-206 114 0 206 92 206 206 0 114-92 206-206 206z m0-349c-16 0-29 14-29 30 0 16 13 29 29 29 17 0 30-13 30-29 0-16-13-30-30-30z m39 241c-2-20-20-116-26-148-2-6-7-10-13-10l0 0c-6 0-11 4-13 10-6 32-24 129-26 148-3 24 15 45 39 45 24 0 42-21 39-45z"/>
<glyph glyph-name="arrow-bottom" unicode="&#98;" d="M442 380l42-43-206-205-206 205 43 43 163-162z"/>
<glyph glyph-name="arrow-left" unicode="&#99;" d="M403 93l-44-43-205 206 205 206 44-43-163-163z"/>
<glyph glyph-name="arrow-right" unicode="&#100;" d="M154 419l43 43 206-206-206-206-43 43 163 163z"/>
<glyph glyph-name="arrow-top" unicode="&#101;" d="M115 132l-43 43 206 205 206-205-42-43-164 162z"/>
<glyph glyph-name="bici" unicode="&#102;" d="M337 445l-14-27 54-21 0-60-188 0 0 27 27 0 0 13c0 7-7 14-14 14l-67 0c-14 0-14-14-14-14l0-13 41 0 0-27-29-57c-8 2-17 3-25 3-60 0-108-48-108-108 0-59 48-108 108-108 59 0 108 49 108 108 0 0 27 0 40 0 13 0 13 14 13 14 3 39 24 70 50 91 18 14 38 22 58 27l0-28c-46-12-81-54-81-104 0-59 49-108 108-108 60 0 108 49 108 108 0 49-33 90-78 103l-30 59 0 67c0 8-6 17-13 20z m-148-135l121 0c-27-14-67-81-67-108l-32 0c-6 27-22 49-44 63z m-81-67c37 0 67-31 67-68 0-37-30-67-67-67-37 0-68 30-68 67 0 37 31 68 68 68z m296 0c37 0 68-31 68-68 0-37-31-67-68-67-37 0-67 30-67 67 0 37 30 68 67 68z"/>
<glyph glyph-name="calendar" unicode="&#103;" d="M197 216l-58 0 0 59 58 0z m89 59l-58 0 0-59 58 0z m89 0l-58 0 0-59 58 0z m-178-86l-58 0 0-59 58 0z m89 0l-58 0 0-59 58 0z m89 0l-58 0 0-59 58 0z m22 205c0-10-8-18-18-18-10 0-18 8-18 18l0 46c0 10 8 18 18 18 10 0 18-8 18-18z m-245 46c0 10-8 18-18 18-10 0-18-8-18-18l0-46c0-10 8-18 18-18 10 0 18 8 18 18z m267-27l0-18c0-23-18-41-40-41-22 0-40 18-40 41l0 18-165 0 0-18c0-23-18-41-40-41-22 0-40 18-40 41l0 18-44 0 0-359 412 0 0 359z m3-319l-332 0 0 223 332 0z"/>
<glyph glyph-name="celular" unicode="&#104;" d="M254 462c-54-1-110-6-110-59 0-17 0-281 0-297 0-52 66-56 112-56 46 0 112 4 112 56 0 17 0 280 0 297 0 55-60 59-114 59z m2-31c4 0 7-3 7-7 0-3-3-6-7-6-4 0-7 3-7 6 0 4 3 7 7 7z m0-359c-9 0-16 8-16 16 0 9 7 16 16 16 9 0 16-7 16-16 0-8-7-16-16-16z m86 53l-172 0 0 266 172 0z"/>
<glyph glyph-name="check" unicode="&#105;" d="M96 320l-96-96 192-192 320 320-96 96-224-224z"/>
<glyph glyph-name="18plus" unicode="&#106;" d="M162 169l0 139-32 0 0 35 76 0 0-174z m211 129c0-15-8-28-22-36 19-8 31-24 31-44 0-31-28-51-71-51-44 0-72 19-72 50 0 20 13 37 33 45-14 8-24 22-24 38 0 27 25 45 62 45 39 0 63-18 63-47z m-92-76c0-15 10-23 30-23 19 0 30 8 30 23 0 14-11 23-30 23-20 0-30-9-30-23z m5 74c0-13 8-20 25-20 16 0 25 7 25 20 0 13-9 20-25 20-17 0-25-7-25-20z m170 28c7-22 11-45 11-68 0-116-95-211-211-211-116 0-211 95-211 211 0 116 95 211 211 211 23 0 46-4 68-11l0 47c-22 6-45 9-68 9-141 0-256-115-256-256 0-141 115-256 256-256 141 0 256 115 256 256 0 23-3 46-9 68z m-13 119l0 49-35 0 0-49-49 0 0-35 49 0 0-49 35 0 0 49 49 0 0 35z"/>
<glyph glyph-name="comment" unicode="&#107;" d="M256 486c-127 0-230-74-230-172 0-53 30-99 77-130l0-158 117 117c12-1 24-2 36-2 127 0 230 74 230 172 0 99-103 173-230 173z"/>
<glyph glyph-name="contact" unicode="&#109;" d="M256 462l-206-157 0-255 412 0 0 255z m0-45l160-122-1 0-159-113-160 113z"/>
<glyph glyph-name="poisson" unicode="&#110;" d="M354 113c18 12 33 27 46 45l62-63-45-45z m-304-18l62 63c13-18 28-33 46-45l-63-63z m352 261c-13 18-28 34-45 46l60 60 45-45z m-352 61l45 45 60-60c-18-12-33-28-45-46z m206-13c-80 0-145-65-145-146 0-59 35-110 86-132l0-36c3-6 13-10 25-13l0 21 20 0 0-24c9 0 19 0 28 0l0 24 20 0 0-21c12 3 22 7 26 13l0 36c50 22 85 73 85 132 0 81-65 146-145 146z m-64-200c-25 0-46 21-46 46 0 26 21 46 46 46 26 0 47-20 47-46 0-25-21-46-47-46z m34-37l31 43 0 0 0 0 31-43z m96 37c-26 0-47 21-47 46 0 26 21 46 47 46 25 0 46-20 46-46 0-25-21-46-46-46z"/>
<glyph glyph-name="distance" unicode="&#111;" d="M240 216c0 51-42 94-94 94-52 0-94-43-94-94 0-16 4-30 10-43l84-173 84 173c6 13 10 27 10 43z m-94-52c-29 0-52 23-52 52 0 28 23 52 52 52 29 0 52-24 52-52 0-29-23-52-52-52z m266 348c-26 0-48-21-48-48 0-7 2-14 6-21l42-87 42 87c4 7 6 14 6 21 0 27-22 48-48 48z m0-74c-15 0-26 12-26 26 0 15 11 27 26 27 14 0 26-12 26-27 0-14-12-26-26-26z m-41-234c-2 9-5 17-8 26-4 12-9 23-13 35-7 22 5 41 7 44 5 6 9 11 14 16 10 10 21 19 32 27-1 2-2 4-4 6-16-6-100-35-98-100 1-13 6-25 9-38 1-6 3-12 3-18 1-3 1-6 1-8 0 0 0 0 0 0 0 0 0-9 0-13-1-12-3-24-8-35-5-10-12-19-20-26-20-16-47-22-72-25-1 0-2 0-3 0l-45-92c22 2 44 5 66 10 25 6 49 15 71 29 22 14 41 33 53 56 14 23 19 51 18 78-1 9-2 18-3 28z"/>
<glyph glyph-name="statistics" unicode="&#112;" d="M90 92c0-4-3-7-8-7l-50 0c-5 0-8 3-8 7l0 52c0 4 3 7 8 7l50 0c5 0 8-3 8-7z m98 0c0-4-4-7-8-7l-51 0c-4 0-7 3-7 7l0 84c0 4 3 7 7 7l51 0c4 0 8-3 8-7z m98 0c0-4-3-7-7-7l-51 0c-4 0-8 3-8 7l0 150c0 4 4 7 8 7l51 0c4 0 7-3 7-7z m99 0c0-4-3-7-7-7l-51 0c-4 0-7 3-7 7l0 247c0 4 3 8 7 8l51 0c4 0 7-4 7-8z m99 0c0-4-4-7-8-7l-51 0c-4 0-7 3-7 7l0 378c0 3 3 7 7 7l51 0c4 0 8-4 8-7z"/>
<glyph glyph-name="eye" unicode="&#113;" d="M256 136c-83 0-158 57-206 127 48 67 124 113 206 113 84 0 159-45 206-113-44-73-120-127-206-127z m-162 126c39-49 98-91 162-91 88 0 145 66 164 91-40 46-98 79-164 79-84 0-142-56-162-79z m164 63c39 0 70-31 70-69 0-38-31-69-70-69-38 0-69 31-69 69 0 38 31 69 69 69z"/>
<glyph glyph-name="facebook" unicode="&#114;" d="M288 0l-96 0 0 256-64 0 0 88 64 0 0 52c0 72 19 116 104 116l71 0 0-88-44 0c-33 0-35-13-35-36l0-44 79 0-9-88-70 0z"/>
<glyph glyph-name="finger" unicode="&#115;" d="M85 246c5-28 35-92 95-152l0-33 214 0 0 33 21 36c8 13 12 28 12 43l0 111c0 9-11 19-26 22-13 2-24 0-30-6 0 10-11 19-26 22-11 3-22 1-28-4-2 9-13 18-27 20-13 3-25 1-31-5l0 0c0 0 0 0 0 0 0 3-17 160-17 160-3 28-48 24-48-3l0-258c0-3-2-6-5-6 0 0 0 0 0 0 0 0-1 0-1 0-9 0-28 0-47 28-3 3-5 7-7 10-18 26-54 11-49-18z m95-234c0-7 5-12 12-12l190 0c7 0 12 5 12 12l0 30-214 0z"/>
<glyph glyph-name="flag-star" unicode="&#116;" d="M65 512l0-512 191 58 191-58 0 512z m275-337l-83 43-83-43 16 92-67 66 92 13 42 84 41-84 93-13-67-66z"/>
<glyph glyph-name="googleplus" unicode="&#117;" d="M280 480c0 0-101 0-134 0-60 0-117-46-117-98 0-54 41-98 102-98 4 0 8 1 12 1-4-8-6-16-6-25 0-15 8-27 18-37-8 0-15 0-23 0-75 0-132-48-132-97 0-48 63-79 137-79 85 0 132 49 132 97 0 39-12 62-47 87-12 9-35 29-35 42 0 14 4 21 25 38 23 17 38 42 38 70 0 34-15 66-43 77l43 0z m-47-328c1-4 1-9 1-14 0-39-25-69-97-69-52 0-89 32-89 71 0 39 46 71 98 70 12 0 23-2 33-5 28-20 48-31 54-53z m-83 146c-34 1-67 39-73 84-6 45 17 80 52 79 34-1 67-37 73-83 6-45-17-81-52-80z m266 86l0 96-32 0 0-96-96 0 0-32 96 0 0-96 32 0 0 96 96 0 0 32z"/>
<glyph glyph-name="glasses" unicode="&#118;" d="M479 196c-1 6-23 137-27 158 0 2 0 4-1 7-2 21-7 60-71 60-8 0-14-6-14-14 0-7 6-13 14-13 39 0 41-16 44-37 0-2 1-5 1-7 2-10 9-48 15-87-16 13-36 20-58 20-36 0-67-19-85-47-8 3-22 7-41 7-19 0-33-4-41-7-17 28-48 47-83 47-24 0-45-8-62-21 6 38 14 78 16 88 0 2 0 5 1 7 2 21 4 37 44 37 8 0 14 6 14 13 0 8-6 14-14 14-64 0-69-39-72-60 0-3 0-5-1-7-3-21-25-151-25-157 0-1 0-2 0-3 0-2 0-5 0-7 0-53 45-96 99-96 53 0 97 43 97 96 0 8-2 16-3 23 5 2 16 5 30 5 14 0 24-2 30-4-2-8-3-16-3-24 0-53 45-96 99-96 53 0 97 43 97 96 0 1-1 3-1 5 1 1 1 2 1 4z m-347-78c-39 0-71 32-71 69 0 37 32 68 71 68 38 0 69-30 69-68 0-38-31-69-69-69z m250 0c-39 0-71 32-71 69 0 37 32 68 71 68 33 0 60-23 67-54 0-2 1-5 1-7 0-1 0-1 0-1 0-2 1-4 1-6 0-38-31-69-69-69z"/>
<glyph glyph-name="camera" unicode="&#119;" d="M43 406l25 0c17 0 17 42 35 42l94 0c17 0 17-42 34-42l162 0c0 9 8 17 17 17l17 0c10 0 17-8 17-17l26 0c24 0 43-20 43-43l0-257c0-23-19-42-43-42l-427 0c-24 0-43 19-43 42l0 257c0 23 19 43 43 43z m299-43c-71 0-128-58-128-128 0-71 57-129 128-129 71 0 128 58 128 129 0 70-57 128-128 128z m-239-43l51 0c9 0 17 8 17 17l0 9c0 9-8 17-17 17l-51 0c-10 0-18-8-18-17l0-9c0-9 8-17 18-17z m239 9c-52 0-94-42-94-94 0-52 42-94 94-94 52 0 94 42 94 94 0 52-42 94-94 94z"/>
<glyph glyph-name="goto" unicode="&#120;" d="M329 201l0-56 133 132-133 133 0-57c0 0-232-47-279-251 100 107 279 99 279 99z"/>
<glyph glyph-name="home" unicode="&#121;" d="M512 208l-96 96 0 144-64 0 0-80-96 96-256-256 0-16 64 0 0-160 160 0 0 96 64 0 0-96 160 0 0 160 64 0z"/>
<glyph glyph-name="finger-right" unicode="&#122;" d="M252 409c31 0 10-85-1-112l159 0c29 0 29-40 0-40l-77 0c-47 0-39-27-25-24 5 2 14 4 14 4-3-20-4-30-17-34l-10-3c-5-2-8-7-7-12 2-4 7-7 12-6l13 5c-2-17-4-30-16-33l-10-4c-5-2-8-7-7-11 2-5 7-8 12-6l11 3c-4-23-24-33-51-33-58 0-77 43-172 43 0 35 0 126 0 126 48 0 82 19 107 43 47 47 43 94 65 94z m0 30c-45 0-44-60-86-102-20-20-47-35-86-35l-30 0 0-186 30 0c88 0 104-43 172-43 42 0 72 18 80 59 5 20 16 79 19 95l59 0c30 0 52 23 52 50 0 27-21 50-52 50l-120 0c12 49 13 112-38 112z"/>
<glyph glyph-name="heart-fill" unicode="&#65;" d="M458 366c-22 92-156 115-202 22-46 93-180 70-202-22-35-150 163-219 202-301 39 82 237 151 202 301z"/>
<glyph glyph-name="heart-add" unicode="&#66;" d="M318 121c-18-19-39-39-62-62-152 148-195 202-204 258-11 68 40 136 119 136 34 0 64-13 85-35 21 22 51 35 85 35 79 0 130-68 119-136-2-13-6-25-12-39l-31 31c17 54-19 104-76 104-51 0-73-40-85-60-11 18-31 60-85 60-32 0-59-16-72-43-34-69 42-139 157-254 12 11 23 23 34 34z m128 109l-52 0 0 52-41 0 0-52-53 0 0-41 53 0 0-53 41 0 0 53 52 0z"/>
<glyph glyph-name="location" unicode="&#67;" d="M256 462c-72 0-130-58-130-131 0-72 57-155 130-281 73 126 131 209 131 281 0 73-59 131-131 131z m0-174c-26 0-47 21-47 47 0 26 21 46 47 46 26 0 47-20 47-46 0-26-21-47-47-47z"/>
<glyph glyph-name="list" unicode="&#68;" d="M123 98l-73 0 0 65 73 0z m0 190l-73 0 0-65 73 0z m0 125l-73 0 0-65 73 0z m45 0l0-65 294 0 0 65z m0-190l294 0 0 65-294 0z m0-125l294 0 0 65-294 0z"/>
<glyph glyph-name="mouse" unicode="&#69;" d="M324 427c14 0 25-11 25-25l0-224c0-51-42-93-93-93-52 0-93 42-93 93l0 224c0 14 11 25 25 25z m0 35l-136 0c-33 0-60-27-60-60l0-224c0-71 57-128 128-128 70 0 128 57 128 128l0 224c0 33-27 60-60 60z m-51-138l0 57c0 10-8 17-18 17-9 0-17-7-17-17l0-57c0-10 8-18 17-18 10 0 18 8 18 18z"/>
<glyph glyph-name="atom" unicode="&#70;" d="M226 390c-10 5-19 9-28 12 14 36 33 59 58 59 24 0 43-22 57-56-9-4-18-8-28-13-10 27-22 39-29 39-8 0-20-13-30-41z m30-309c-7 0-19 12-29 39-10-5-19-9-28-13 14-34 33-56 57-56 25 0 44 23 58 59-9 3-18 7-28 12-10-28-22-41-30-41z m-82 38c-33-12-83-24-103 5-10 15-13 42 25 93 10 13 22 26 34 38 26 27 56 52 95 79-18 10-39 20-59 27-21 7-39 11-52 11-9 0-16-2-18-5-2-3-2-13 8-31 1 0 2 0 3 0 19 0 33-15 33-33 0-18-14-33-33-33-18 0-33 15-33 33 0 6 2 12 5 16-20 34-16 54-8 66 6 8 18 17 43 17 43 0 102-28 140-50 39 23 99 54 144 54 25 0 37-10 43-18 10-15 13-42-25-93-54-70-160-147-242-176z m218 194c26 35 27 53 24 58-2 3-9 5-18 5-33 0-85-25-115-42 22-14 43-29 61-45-7-7-14-13-22-20-21 17-44 33-68 48-27-18-55-39-80-61 19-16 41-33 65-49-9-6-18-11-29-17 0 0 0 0 0 0 0 0 0 0 0 1-20 13-39 29-58 44-49-49-62-84-56-94 2-3 9-5 18-5 40 0 105 34 144 59 47 31 100 74 134 118z m42-121c2 5 3 10 3 16 0 18-14 33-33 33-18 0-33-15-33-33 0-18 15-33 33-33 2 0 3 0 5 0 9-17 9-27 7-30-2-3-9-5-18-5-27 0-66 16-91 28-9-6-19-13-29-19 33-18 83-39 120-39 25 0 37 9 43 17 8 12 12 32-7 65z"/>
<glyph glyph-name="rocket" unicode="&#71;" d="M281 68l-49 0-17 29 82 0z m125-18c18 57-1 120-33 147-5-25-18-63-27-81 39-9 55-33 60-66z m-240 66c-9 18-22 56-27 81-32-27-51-90-33-147 5 33 21 57 60 66z m148 1l-116 0c-45 90-66 239 58 345 124-105 104-251 58-345z m-36 118c0 12-10 22-22 22-12 0-22-10-22-22 0-12 10-22 22-22 12 0 22 10 22 22z m15 87c0 20-17 36-37 36-20 0-37-16-37-36 0-21 17-37 37-37 20 0 37 16 37 37z"/>
<glyph glyph-name="circle-star" unicode="&#72;" d="M256 422c92 0 166-74 166-166 0-92-74-166-166-166-92 0-166 74-166 166 0 92 74 166 166 166z m0 40c-114 0-206-92-206-206 0-114 92-206 206-206 114 0 206 92 206 206 0 114-92 206-206 206z m-34-160l-82-12 59-57-14-82 73 39 73-39-14 82 59 57-82 12-36 74z"/>
<glyph glyph-name="stream" unicode="&#73;" d="M58 314c25 86 104 148 198 148 126 0 222-111 204-236l-17 0c-21 0-24 2-35 34-10 25-22 56-50 56-28 0-39-31-49-56-8-21-12-33-19-33-7 0-10 12-19 33-9 25-21 56-49 56-28 0-40-31-49-56-8-23-12-33-19-33-7 0-10 11-19 33-10 25-21 54-52 54z m368-122c-28 0-39 29-49 54-10 26-12 34-19 34-6 0-9-10-18-34-11-25-22-56-50-56-28 0-39 31-49 56-9 23-12 33-19 33-7 0-9-9-19-33-9-25-21-56-49-56-28 0-40 31-49 56-11 32-15 34-36 34l-18 0c-14-123 82-230 205-230 91 0 169 60 196 142z"/>
<glyph glyph-name="document" unicode="&#74;" d="M340 142l-168 0 0 30 168 0z m-1 55l-167 0 0 30 167 0z m0 55l-167 0 0 30 167 0z m-41 170l0-86 86 0 0-246-256 0 0 332 170 0m25 40l-235 0 0-412 336 0 0 311z"/>
<glyph glyph-name="thumb-up" unicode="&#75;" d="M427 194c15 24 7 56-4 66 5 13 8 38-2 56 0 0-82 0-83 0 14 56 19 146-38 146-32 0-39-29-48-57-37-116-123-118-175-123 0-42 0-133 0-180 80 0 120-6 188-35 72-31 161-22 151 61 19 19 19 49 11 66z m-27 94c2-17-6-37-25-37l-34 0c-13 0-18 11-18 20 0 7 7 17 19 17z m-292-157c0 42 0 74 0 123 100 8 150 69 171 134 6 20 8 48 25 42 19-5 18-59 4-111-6-22-22-40-9-67-24-8-32-50-11-67-17-16-16-48 4-63-8-9-11-19-10-29-33 11-91 38-174 38z m247-51l-25 0c-13 0-18 8-18 17 0 9 6 18 18 18l56 0c-1-13-7-35-31-35z m19 57l-51 0c-13 0-18 10-18 18 0 8 5 19 18 19l78 0c2-19-6-37-27-37z m7 58l-58 0c-13 0-18 11-18 18 0 8 5 19 18 19l82 0c2-18-6-37-24-37z"/>
<glyph glyph-name="linkedin" unicode="&#76;" d="M151 411c0-28-23-50-51-50-27 0-50 22-50 50 0 28 23 51 50 51 28 0 51-23 51-51z m-8-86l-85 0 0-275 85 0z m136 0l-81 0 0-275 81 0c0 0 0 102 0 144 0 39 18 62 52 62 31 0 46-22 46-62 0-39 0-144 0-144l85 0c0 0 0 100 0 174 0 73-42 109-100 109-58 0-83-45-83-45z"/>
<glyph glyph-name="briefcase" unicode="&#77;" d="M50 307l0 44 412 0 0-46c0-92-412-89-412 2z m152 81c0 4 3 7 7 7l94 0c4 0 7-3 7-7l0-17 30 0 0 30c0 12-9 22-21 22l-126 0c-12 0-21-10-21-22l0-30 30 0z m252-140l0-159-396 0 0 161c78-54 317-56 396-2z m-175-60l-46 0 0-18c0-12 10-23 23-23 13 0 23 11 23 23z"/>
<glyph glyph-name="horn" unicode="&#78;" d="M388 401c-1 4-5 7-9 7-2 0-4 0-5-1l-317-184c-4-3-7-8-6-14l18-70c1-5 6-9 11-9l30-1c0 0 3 0 5-4 4-12 9-24 17-34 14-15 32-23 52-24l89-4c1 0 2 0 3 0 32 0 62 21 70 50 1 6 6 6 6 6l94-4c0 0 0 0 0 0 4 0 6 1 8 4 2 2 3 5 2 8z m-114-307l-89 3c-12 1-22 6-30 14-3 4-6 8-8 12-2 5 4 4 4 4l160-7c0 0 5 1 2-5-7-13-22-22-39-21z m237 23l-78 318c-2 8-9 14-17 14-2 0-3-1-5-1-4-1-8-4-11-8-2-4-3-9-2-14l79-317c2-8 9-14 17-14 2 0 3 0 4 1 10 2 16 12 13 21z m-475 89c-2 8-9 14-18 14-1 0-3 0-4 0-10-3-16-13-13-22l17-70c2-9 9-14 18-14 1 0 2 0 4 0 5 1 9 4 11 9 3 4 3 9 2 13z"/>
<glyph glyph-name="message" unicode="&#79;" d="M387 435l-267 0c-40 0-72-32-72-72l0-125c0-40 32-72 72-72l158 0 65-99 22 99 22 0c40 0 72 32 72 72l0 125c0 40-32 72-72 72z"/>
<glyph glyph-name="hamburger" unicode="&#80;" d="M462 348l-412 0 0 65 412 0z m0-60l-412 0 0-65 412 0z m0-125l-412 0 0-65 412 0z"/>
<glyph glyph-name="movie" unicode="&#81;" d="M328 259c0-9-5-17-13-22l-71-41c-4-2-8-4-13-4-14 0-25 12-25 26l0 82c0 14 11 26 25 26 5 0 9-1 13-4l71-41c8-4 13-13 13-22z m184 173l0-352c0-10-8-18-18-18l-14 0c-10 0-18 8-18 18 0 4-3 7-6 7l-21 0c-3 0-6-3-6-7 0-10-8-18-18-18l-307 0c-10 0-18 8-18 18 0 4-3 7-6 7l-21 0c-3 0-6-3-6-7 0-10-8-18-18-18l-17 0c-10 0-18 8-18 18l0 352c0 10 8 18 18 18l17 0c10 0 18-8 18-18 0-4 3-7 6-7l21 0c3 0 6 3 6 7 0 10 8 18 18 18l307 0c10 0 18-8 18-18 0-4 3-7 6-7l21 0c3 0 6 3 6 7 0 10 8 18 18 18l14 0c10 0 18-8 18-18z m-47-88c0 4-4 8-8 8l-18 0c-4 0-8-4-8-8l0-31c0-4 4-8 8-8l18 0c4 0 8 4 8 8z m-26-177l18 0c4 0 8 3 8 7l0 31c0 5-4 8-8 8l-18 0c-4 0-8-3-8-8l0-31c0-4 4-7 8-7z m-353 177c0 4-3 8-8 8l-18 0c-4 0-7-4-7-8l0-31c0-4 3-8 7-8l18 0c5 0 8 4 8 8z m-26-177l18 0c5 0 8 3 8 7l0 31c0 5-3 8-8 8l-18 0c-4 0-7-3-7-8l0-31c0-4 3-7 7-7z m318 198c0 6-5 11-11 11l-222 0c-6 0-11-5-11-11l0-218c0-6 5-11 11-11l222 0c6 0 11 5 11 11z"/>
<glyph glyph-name="user" unicode="&#82;" d="M315 255c22 17 37 44 37 74 0 51-43 93-96 93-53 0-96-42-96-93 0-30 15-57 37-74-70-24-120-89-120-165l358 0c0 76-50 141-120 165z"/>
<glyph glyph-name="play" unicode="&#83;" d="M491 432c-72 10-152 16-235 16-83 0-163-6-235-16-13-54-21-113-21-176 0-63 8-122 21-176 72-10 152-16 235-16 83 0 163 6 235 16 13 54 21 113 21 176 0 63-8 122-21 176z m-299-272l0 192 160-96z"/>
<glyph glyph-name="flame" unicode="&#84;" d="M435 344c-70 135-275 164-275 164 0 0 95-112-27-201-76-56-107-128-74-208 25-61 79-86 136-95-15 30-19 74-8 118 1 5 3 10 4 14 16-26 42-41 68-34 36 9 56 54 46 100-2 11-5 21-10 29 1 0 3 0 4-1 44-13 65-83 47-156-5-24-14-45-26-62 76 26 126 91 140 148 15 61 3 130-25 184z"/>
<glyph glyph-name="teacher" unicode="&#85;" d="M241 333l-38-23 26 0 23 4 16 0 18-4 29 0-34 23z m212 62c6 5 9 13 7 22-1 6-4 11-8 15 0 3 1 5 1 8 0 10-5 18-13 22 1 2 1 4 1 6 0 14-11 25-25 25-8 0-14-3-19-8-4 5-11 9-19 9-12 0-21-8-24-18-26 22-60 36-98 36-38 0-73-14-99-38-4 10-13 16-24 16-8 0-15-4-19-9-5 5-11 9-19 9-14 0-25-12-25-26 0-2 0-4 1-6-8-4-13-12-13-22 0-2 1-5 1-8-4-4-7-9-8-15-2-8 1-17 7-22-1-2-2-5-3-7-2-12 5-24 17-28 0-1-1-1-1-2 0-14 12-25 26-25 8 0 16 4 20 10 17-57 73-99 139-99 67 0 123 43 140 101 4-5 11-8 18-8 14 0 26 11 26 25 0 1-1 1-1 2 12 4 19 15 17 28-1 2-2 5-3 7z m-85 20l0 0-17 0c1 0 1 0 1 0l-80 0 0-7-12 3-14-4 1 8c0 0-97 0-97 0l0 0 2-18-17 0c4 19 13 37 26 52 9 4 23 8 42 9 5 1-18-20-13-20 13 0 59 17 64 18 5 1-17-15-11-16 20-1 47 14 80 12 14 0 25-5 34-9 11-15 19-33 22-52l-13 0 2 24z m-10-10l-5-52-66 0-5 52z m-121 0l-5-52-67 0-5 52z m19-144c-68 0-123 51-123 115 0 3 0 6 0 9l20 0 4-41 83 0 4 45 16 4 14-4 4-45 84 0 3 35 15 0c0-1 0-2 0-3 0-64-56-115-124-115z m-9-214l-61 182-110-24 11-204 331 0 10 204-113 24z m-38 180l19-43 42 0 18 43z m41-139l26 88-53 0z"/>
<glyph glyph-name="thunder" unicode="&#86;" d="M373 287l-75 0 55 202-214-269 75 0-55-197z"/>
<glyph glyph-name="pushpin" unicode="&#87;" d="M272 512l-48-48 48-48-112-128-112 0 88-88-136-180 0-20 20 0 180 136 88-88 0 112 128 112 48-48 48 48z m-48-272l-32 32 112 112 32-32z"/>
<glyph glyph-name="mic" unicode="&#88;" d="M256 154c56 0 102 46 102 102l0 154c0 56-46 102-102 102-56 0-102-46-102-102l0-154c0-56 46-102 102-102z m179 102l0 51c0 14-11 26-25 26-15 0-26-12-26-26l0-51c0-71-57-128-128-128-71 0-128 57-128 128l0 51c0 14-11 26-26 26-14 0-25-12-25-26l0-51c0-90 67-165 153-177l0-28-76 0c-15 0-26-11-26-25 0-15 11-26 26-26l204 0c15 0 26 11 26 26 0 14-11 25-26 25l-76 0 0 28c86 12 153 87 153 177z"/>
<glyph glyph-name="water" unicode="&#89;" d="M47 360c49 42 89 76 195 16 51-29 93-40 127-40 60 0 99 33 133 62 12 11 13 29 3 41-10 13-28 14-40 4-49-43-89-77-195-16-141 79-207 23-260-23-12-10-13-29-3-41 10-12 28-14 40-3z m418-62c-49-43-89-77-195-17-141 80-207 23-260-22-12-11-13-29-3-41 10-12 28-14 40-4 49 43 89 77 195 17 51-29 93-40 127-40 60 0 99 33 133 62 12 11 13 29 3 41-10 12-28 14-40 4z m0-146c-49-42-89-76-195-16-141 80-207 23-260-22-12-11-13-29-3-41 10-13 28-14 40-4 49 43 89 76 195 16 51-29 93-39 127-39 60 0 99 33 133 62 12 10 13 29 3 41-10 12-28 14-40 3z"/>
<glyph glyph-name="puzzle" unicode="&#90;" d="M39 68c0 0 68-12 90-10 23 2 35 12 40 26 2 15 2 19-12 37-10 21-20 48-2 69 20 18 51 29 79 9 18-15 24-35 7-66-16-23-29-44-8-65 18-9 35-8 54-7 20 2 55 5 61 6 6 1 6 1 6 1 0 0 1 8 0 21-2 14-10 49-4 61 6 12 23 23 40 15 14-7 36-31 60-29 23 1 46 14 46 58 1 44-44 52-58 49-19-5-26-10-33-16-8-5-20-12-32-9-12 4-28 23-28 35-1 11 4 56 7 74 2 17 3 23 3 23 0 0-33-5-64-8-32-2-60-5-68 16-8 20 9 44 20 57 10 14 17 59-22 71-38 12-59-5-70-20-11-15-8-46 14-73 22-28-4-58-49-54-44 5-77 10-77 10z"/>
<glyph glyph-name="rss" unicode="&#48;" d="M3 70c0-39 31-70 70-70 38 0 69 31 69 70 0 39-31 70-69 70-39 0-70-31-70-70z m336-70l-99 0c0 132-106 240-237 240l0 99c186 0 336-152 336-339z m69 0c0 226-181 410-405 410l0 102c280 0 507-229 507-512z"/>
<glyph glyph-name="search" unicode="&#49;" d="M445 125l-85 86c14 24 21 51 21 78 0 88-71 159-158 159-88 0-159-71-159-159 0-88 71-159 159-159 28 0 55 8 80 23l84-86c2-2 5-3 7-3 3 0 6 1 8 3l43 44c4 4 4 10 0 14z m-222 261c53 0 96-43 96-97 0-53-43-97-96-97-54 0-97 44-97 97 0 54 43 97 97 97z"/>
<glyph glyph-name="select-square" unicode="&#50;" d="M390 259l0-173-340 0 0 339 317 0-41-41-235 0 0-257 258 0 0 91z m19 167l-163-163-71 71-52-53 123-123 216 216z"/>
<glyph glyph-name="select-circle" unicode="&#51;" d="M429 284c17-115-72-219-188-219-106 0-191 86-191 191 0 105 85 191 191 191 46 0 88-17 121-44l-30-31c-25 20-57 31-91 31-82 0-148-66-148-147 0-81 66-147 148-147 77 0 140 59 147 134z m-18 126l-160-159-69 69-51-51 120-121 211 211z"/>
<glyph glyph-name="add-circle" unicode="&#52;" d="M364 224l-77 0 0-77-58 0 0 77-77 0 0 58 77 0 0 77 58 0 0-77 77 0z m98 32c0-114-92-206-206-206-114 0-206 92-206 206 0 114 92 206 206 206 114 0 206-92 206-206z m-40 0c0 92-74 166-166 166-92 0-166-74-166-166 0-92 74-166 166-166 92 0 166 74 166 166z"/>
<glyph glyph-name="shuffle" unicode="&#53;" d="M102 324l-52 0 0 40 52 0c39 0 76-16 102-44-1-2-22-36-22-36-19 25-48 40-80 40z m360-155l-88 55 0-36-29 0c-32 0-61 15-80 40 0 0-21-34-22-35 27-29 64-45 102-45l29 0 0-33z m0 174l-88 54 0-33-29 0c-48 0-93-24-118-66l-40-63c-19-30-50-47-85-47l-52 0 0-40 52 0c48 0 93 24 119 66l39 63c19 29 50 47 85 47l29 0-1-36z"/>
<glyph glyph-name="signal" unicode="&#54;" d="M394 462c34-33 54-79 54-130 0-50-20-96-54-130l-26 27c26 27 42 63 42 103 0 40-16 77-42 103z m-78-78c14-13 22-32 22-52 0-20-8-38-22-52l28-27c20 21 32 48 32 79 0 31-12 59-32 79z m-172 51c-26-26-42-63-42-103 0-40 16-76 42-103l-26-27c-34 34-54 80-54 130 0 51 20 97 54 130z m24-24c-20-20-32-48-32-79 0-31 12-58 32-79l28 27c-14 14-22 32-22 52 0 20 8 39 22 52z m111-135c-2 8 1 17 7 22 9 8 15 20 15 32 1 25-19 46-44 47-25 0-45-19-46-44-1-14 5-26 15-35 6-5 9-14 7-22-13-91-45-166-98-226l51 0c18 24 40 38 70 38l0 0c31 0 52-14 70-38l51 0c-53 60-85 135-98 226z m-47-148c10 20 17 41 24 64 7-23 14-44 24-64z"/>
<glyph glyph-name="tags" unicode="&#55;" d="M271 438l-155 0 0-155 191-191 155 155z m-55-96c-12-13-32-13-45 0-12 12-12 32 0 45 13 12 33 12 45 0 13-13 13-33 0-45z m40-241l-27-27-179 179 0 140 36 0 0-122z"/>
<glyph glyph-name="taxi" unicode="&#56;" d="M490 324c-2 0-5 0-7-1l-25-7-26 64c-8 19-31 35-52 35l-17 0 0 53c0 9-8 17-17 17l-180 0c-9 0-17-8-17-17l0-53-17 0c-21 0-44-16-52-35l-27-64-24 7c-2 1-5 1-7 1-13 0-22-10-22-23l0-14c0-15 13-28 28-28l2 0-4-9c-7-18-13-48-13-67l0-128c0-15 13-28 28-28l34 0c16 0 28 13 28 28l0 32 305 0 0-32c0-15 13-28 29-28l33 0c16 0 29 13 29 28l0 128c0 19-6 49-14 67l-3 9 2 0c15 0 28 13 28 28l0 14c0 13-9 23-22 23z m-166 138c0 1 0 1 1 1l13 0c0 0 0 0 0-1l0-46c0-1 0-1 0-1l-14 0c0 0 0 0 0 1z m-94 1l16 0c1 0 1 0 1 0l19-47 17 21c0 0 0 1 0 1l-17 25c0 0 0 0 1 0l14 0c1 0 1 0 1 0l9-14c0 0 0 0 0 0l9 14c0 0 0 0 1 0l14 0c1 0 1 0 1 0l-17-25c0 0 0-1 0-1l18-22c0 0 0 0 0 0l-16 0c0 0 0 0 0 0l-10 16c0 0 0 0 0 0l-10-16c0 0 0 0 0 0l-29 0c-1 0-1 0-1 1l-3 9c0 1 0 1-1 1l-18 0c0 0 0 0-1-1l-3-9c0-1 0-1 0-1l-14 0c0 0 0 0 0 1l19 47c0 0 0 0 0 0z m-45-47l0 37c0 0-1 1-1 1l-16 0c0 0 0 0 0 0l0 8c0 1 0 1 0 1l47 0c1 0 1 0 1-1l0-8c0 0 0 0-1 0l-15 0c-1 0-1-1-1-1l0-37c0-1 0-1 0-1l-14 0c0 0 0 0 0 1z m-112-141l40 97c5 12 19 21 31 21l223 0c13 0 27-9 31-21l40-97c5-11-1-21-14-21l-337 0c-12 0-18 10-14 21z m91-125c0-6-5-12-12-12l-76 0c-6 0-11 6-11 12l0 36c0 6 5 11 11 11l76 0c7 0 12-5 12-11z m282 0c0-6-5-12-11-12l-76 0c-7 0-12 6-12 12l0 36c0 6 5 11 12 11l76 0c6 0 11-5 11-11z m-202 286c0 0 1 0 0 0l-5 13c0 1-1 1-1 0l-6-13c0 0 0 0 1 0z"/>
<glyph glyph-name="phone" unicode="&#57;" d="M220 221c0 0-18 27-25 36-14 18-21 45-23 47 20 14 59 31 61 56 3 33-52 100-63 101-28-1-81-49-87-64-12-30-6-59 14-100 25-60 119-176 173-212 36-28 62-38 93-32 15 3 67 46 72 75 1 10-59 82-91 85-24 2-47-35-64-53-2 3-16 14-32 31-7 9-19 20-28 30z"/>
<glyph glyph-name="bus" unicode="&#33;" d="M495 432l-37 0 0-129 15 0 0-59-29 0 0 196c0 40-32 72-72 72l-237 0c-40 0-72-32-72-72l0-192-25 0 0 63 16 0 0 129-37 0 0-129 15 0 0-69 31 0 0-141c0-28 15-51 38-64l0-37 63 0 0 29 178 0 0-29 63 0 0 37c24 12 39 36 39 64l0 137 35 0 0 65 16 0z m-324 65l168 0 0-39-168 0z m18-393l-93 0 0 42 93 0z m225 0l-93 0 0 42 93 0z m0 135c0 0-18-57-162-57-144 0-159 57-159 57l0 198 321 0z"/>
<glyph glyph-name="tree" unicode="&#34;" d="M295 50c-29 1-43 15-51 38-6 20-9 42-13 62-4 18 0 28 19 35 30 13 54 34 72 66-30-20-94-68-95-56 0 44 24 95 38 137-70-96-88-160-37-272-11 3-17-2-20 1-27 24-56-5-84-26-4-2-3-19-1-19 28-7 56-14 84-17 30-2 60-2 90 2 24 2 48 11 76 18-23 33-52 31-78 31z m48 243c-16-9-25-24-25-37 0-4 33 11 35 8 3-5-26-26-21-28 11-6 27-5 41 4 21 12 38 57 38 57 0 0-48 7-68-4z m-22 25c9-4 21-3 32 4 15 8 28 42 28 42 0 0-36 6-51-3-12-7-19-18-19-27 0-3 25 8 26 5 2-3-19-19-16-21z m72 38c-9-5-14-13-14-21 0-2 19 7 20 5 1-3-15-15-12-16 6-3 15-2 23 2 12 7 21 33 21 33 0 0-27 4-38-3z m26-79c-1-1 12-2 12-4 0-2-13-3-12-5 3-3 8-6 14-6 9 0 23 11 23 11 0 0-14 12-23 11-6 0-12-3-14-7z m33 58c-7-2-12-6-14-11 0-1 14 0 14-2 1-1-13-6-11-7 3-4 9-5 16-4 9 2 21 16 21 16 0 0-16 9-26 8z m-177-59c6-3 15-3 24 2 11 7 21 33 21 33 0 0-27 4-39-3-9-5-14-13-14-21 0-2 19 7 20 5 1-3-15-15-12-16z m44 110c1-2 16 11 18 10 2-2-9-18-7-19 7-1 16 3 22 10 9 10 10 37 10 37 0 0-27-4-36-14-7-8-9-17-7-24z m88 10c2-2-9-18-6-19 6-1 15 3 21 10 9 10 10 37 10 37 0 0-27-4-35-14-7-8-10-17-7-24 1-2 16 11 17 10z m-86 47c2-2-10-18-7-19 7-1 15 3 22 10 9 10 10 37 10 37 0 0-27-4-36-14-7-8-9-17-7-24 1-2 16 12 18 10z m-58-8c3-1 5 26 8 27 3 0 8-27 11-25 7 6 12 17 11 30 0 18-25 45-25 45 0 0-22-30-21-47 1-14 7-25 16-30z m-18-56c3-1-1 19 2 20 2 0 10-18 12-16 4 5 6 14 3 23-3 13-25 29-25 29 0 0-11-25-8-38 3-10 9-17 16-18z m-119-18c10-3 19-2 25 3 1 2-17 10-16 12 0 3 20-1 20 1-2 7-9 14-18 17-12 4-38-5-38-5 0 0 14-24 27-28z m-63 25c10-3 19-1 25 3 1 2-17 11-17 13 1 2 21-2 20 1-1 6-8 13-17 16-13 4-38-5-38-5 0 0 14-23 27-28z m62-126c1 2-19 4-19 6 0 3 20 5 19 7-4 6-13 10-22 10-14 0-35-17-35-17 0 0 22-18 35-17 10 0 19 4 22 11z m-28 67c1 2-20 4-20 6 0 3 20 5 19 8-4 5-12 9-22 9-13 0-34-17-34-17 0 0 21-17 34-17 11 0 19 4 23 11z m50 84c2 1-8 19-6 20 2 1 16-14 17-11 2 6 1 15-4 23-8 11-34 19-34 19 0 0-2-27 5-38 6-9 14-13 22-13z m60 0c3 1-7 19-5 20 2 1 15-14 16-11 3 6 2 15-4 23-7 11-33 19-33 19 0 0-3-27 5-38 5-9 14-13 21-13z m59-36c-3-13 1-25 9-31 2-2 10 24 13 23 3-1 2-27 5-26 8 4 16 14 18 26 3 17-14 49-14 49 0 0-28-23-31-41z m-73-26c8-11 19-17 29-16 3 0-11 24-8 26 3 2 21-18 22-15 3 9 1 21-6 31-10 15-45 24-45 24 0 0-2-36 8-50z m-35-71c18-2 33 4 40 15 3 3-32 10-31 14 0 5 35 5 33 9-6 11-19 19-35 21-23 2-62-23-62-23 0 0 33-33 55-36z m42-26c-4 7-13 12-24 14-15 1-42-16-42-16 0 0 22-23 38-24 11-2 22 3 27 9 1 3-22 8-22 10 1 3 24 4 23 7z"/>
<glyph glyph-name="triangle-down" unicode="&#35;" d="M64 366l193-220 191 220z"/>
<glyph glyph-name="twitter" unicode="&#36;" d="M448 375c-14-6-29-10-45-12 16 9 29 25 34 43-15-9-32-15-50-19-14 15-34 25-57 25-44 0-79-35-79-79 0-6 1-12 2-18-65 4-123 35-162 83-7-12-11-26-11-40 0-27 14-51 35-66-13 1-25 4-36 10 0 0 0 0 0-1 0-38 28-70 64-77-7-2-14-3-21-3-5 0-10 1-15 2 10-32 39-54 74-55-27-21-61-34-98-34-7 0-13 1-19 1 35-22 76-35 121-35 145 0 224 120 224 224 0 4 0 7 0 10 15 11 28 25 39 41z"/>
<glyph glyph-name="video" unicode="&#37;" d="M256 512c-142 0-256-114-256-256 0-142 114-256 256-256 142 0 256 114 256 256 0 142-114 256-256 256z m-39-372l0 233 152-116z"/>
<glyph glyph-name="whatsapp" unicode="&#38;" d="M392 390c-35 35-81 54-130 54-101 0-184-82-184-183 0-33 9-64 25-92l-26-95 97 25c27-14 57-22 88-22l0 0c101 0 183 82 183 184 0 49-19 95-53 129m-130-282l0 0c-28 0-55 7-78 21l-6 4-57-16 15 57-4 5c-15 25-23 53-23 82 0 84 69 152 153 152 41 0 79-16 108-45 29-28 44-67 44-107 0-85-68-153-152-153m83 114c-4 3-27 14-31 15-4 2-7 2-10-2-3-5-12-15-15-18-2-3-5-4-10-1-4 2-19 7-37 22-13 13-22 28-25 32-3 5 0 7 2 10 2 2 5 5 7 8 2 2 3 4 4 7 2 3 1 6 0 8-1 3-10 25-14 34-4 9-8 8-10 8-3 0-6 0-9 0-3 0-8-1-12-5-5-5-17-16-17-39 0-22 17-44 19-47 3-3 33-49 79-69 11-5 19-8 26-10 11-3 21-3 29-2 8 2 27 11 31 22 3 11 3 20 2 22-1 2-4 3-9 5"/>
<glyph glyph-name="windows" unicode="&#39;" d="M428 359l0-275-275 0 0 275z m34 34l-343 0 0-343 343 0z m-412 69l0-343 34 0 0 309 309 0 0 34z"/>
<glyph glyph-name="windows-footer" unicode="&#40;" d="M475 128l-329 0 0 219 329 0z m-365 256l0-366 402 0 0 366z m-37-110l-36 0 0 183 292 0 0-36 37 0 0 73-366 0 0-329 73 0z"/>
<glyph glyph-name="close" unicode="&#41;" d="M319 256l124 124c17 17 17 45 0 63-18 17-46 17-63 0l-124-124-124 124c-17 17-45 17-63 0-17-17-17-46 0-63l124-124-124-124c-17-17-17-45 0-63 18-17 46-17 63 0l124 124 124-124c17-17 46-17 63 0 17 18 17 46 0 63z"/>
<glyph glyph-name="config" unicode="&#108;" d="M462 234l0 44-31 8c-7 2-12 7-14 13 0 0 0 0 0 0-1 7 1 14 5 18l24 23-23 38-31-8c-6-2-13 0-18 4 0 0 0 0 0 0-5 5-6 12-5 18l9 31-38 23-23-24c-4-4-11-6-18-4 0 0 0 0 0 0-6 1-11 6-13 13l-8 31-44 0-8-31c-2-7-7-12-13-14 0 0 0 0 0 0-7-1-14 1-18 5l-23 24-38-23 8-31c2-6 0-13-4-18 0 0 0 0 0 0-5-5-12-6-18-5l-31 9-23-38 24-23c4-4 6-11 4-18 0 0 0 0 0 0-1-6-6-11-13-13l-31-8 0-44 31-8c7-2 12-7 14-13 0 0 0 0 0 0 1-7-1-14-5-18l-24-23 23-38 31 8c6 2 13 0 18-4 0 0 0 0 0 0 5-5 6-12 5-18l-9-31 38-23 23 24c4 4 11 6 18 4 0 0 0 0 0 0 6-1 11-6 13-13l8-31 44 0 8 31c2 7 7 12 13 14 0 0 0 0 0 0 7 1 14-1 18-5l23-24 38 23-8 31c-2 6 0 13 4 18 0 0 0 0 0 0 5 5 12 6 18 5l31-9 23 38-24 23c-4 4-6 11-4 18 0 0 0 0 0 0 1 6 6 11 13 13z m-206-59c-45 0-81 36-81 81 0 45 36 81 81 81 45 0 81-36 81-81 0-45-36-81-81-81z"/>
<glyph glyph-name="bell" unicode="&#42;" d="M205 342l-14 14c-24-18-41-47-43-79l21 0c2 27 15 51 36 65z m138-65l20 0c-2 32-17 61-42 79l-14-14c20-14 34-38 36-65z m-21-6c0 32-21 58-51 65l0 7c0 8-7 15-15 15-8 0-16-7-16-15l0-7c-29-7-51-33-51-65l0-56-20-21 0-10 174 0 0 10-21 21z m-66-117l4 0c7 1 12 6 14 12 1 2 2 5 2 8l-41 0c0-11 9-20 21-20z"/>
<glyph glyph-name="radar" unicode="&#43;" d="M256 85c82 0 149 67 149 150 0 82-67 149-149 149-82 0-149-67-149-149 0-83 67-150 149-150z m-21 254l0-40c0-12 9-22 21-22 12 0 21 10 21 22l0 40c42-8 75-41 84-83l-41 0c-12 0-21-10-21-21 0-12 9-22 21-22l41 0c-9-41-42-74-84-83l0 41c0 11-9 21-21 21-12 0-21-10-21-21l0-41c-42 9-75 42-84 83l41 0c12 0 21 10 21 22 0 11-9 21-21 21l-41 0c9 42 42 75 84 83z"/>
</font>
</defs>
</svg>
