<?xml version="1.0" encoding="utf-8"?>
<!-- Generator: Adobe Illustrator 16.0.0, SVG Export Plug-In . SVG Version: 6.00 Build 0)  -->
<!DOCTYPE svg PUBLIC "-//W3C//DTD SVG 1.1//EN" "http://www.w3.org/Graphics/SVG/1.1/DTD/svg11.dtd">
<svg version="1.1" id="Capa_1" xmlns="http://www.w3.org/2000/svg" xmlns:xlink="http://www.w3.org/1999/xlink" x="0px" y="0px"
	 width="128px" height="128px" viewBox="0 0 128 128" enable-background="new 0 0 128 128" xml:space="preserve">
<circle fill="#FFFFFF" cx="64" cy="39.875" r="33.375"/>
<g>
	<path fill="#DF5900" d="M63.836,0.366c-22.191,0-40.182,17.991-40.182,40.182c0,32.096,40.182,87.691,40.182,87.691
		s40.184-53.574,40.184-87.691C104.02,18.356,86.028,0.366,63.836,0.366z M63.836,71.309c-16.987,0-30.76-13.772-30.76-30.761
		c0-16.987,13.773-30.761,30.76-30.761c16.986,0,30.76,13.774,30.76,30.761C94.596,57.537,80.822,71.309,63.836,71.309z"/>
	<path opacity="0.6" fill="#FF853F" d="M64.07,0.366c-0.102,0-0.07,0.005-0.07,0.009v9.42c0-0.001-0.032-0.008,0.07-0.008
		c16.987,0,30.644,13.774,30.644,30.761c0,16.989-13.597,30.761-30.585,30.761C64.026,71.309,64,71.301,64,71.3v56.512
		c0,0.278,0.07,0.428,0.07,0.428s40.184-53.574,40.184-87.691C104.254,18.356,86.262,0.366,64.07,0.366z"/>
</g>
<g>
	<g>
		<defs>
			<rect id="SVGID_1_" x="41.498" y="18.256" width="45.872" height="38.042"/>
		</defs>
		<clipPath id="SVGID_2_">
			<use xlink:href="#SVGID_1_"  overflow="visible"/>
		</clipPath>
		<path clip-path="url(#SVGID_2_)" fill="#303030" d="M86.675,44.74c-0.901-4.592-2.896-8.958-5.454-12.854
			c-1.167-1.774-2.568-3.431-4.107-4.896c-1.195-1.137-2.892-2.744-4.665-2.71h-0.063c-2.872,0.123-3.838,3.499-4.299,5.812
			c-0.279,1.392-0.45,2.804-0.529,4.225c-0.838-0.951-1.264-2.308-1.264-4.048v-5.886h-3.754v5.886c0,1.745-0.427,3.102-1.265,4.048
			c-0.078-1.421-0.255-2.833-0.529-4.225c-0.461-2.313-1.427-5.689-4.298-5.812h-0.064c-1.778-0.04-3.474,1.573-4.665,2.71
			c-1.539,1.46-2.94,3.122-4.107,4.896c-2.568,3.896-4.558,8.263-5.459,12.854c-0.632,3.225-2.019,11.243,3.063,11.517
			c2.95,0.157,5.592-2.357,8.047-3.626c1.96-1.015,3.984-2.122,5.361-3.901c1.573-2.034,1.97-4.729,2.318-7.205
			c0.127-0.911,0.225-1.833,0.294-2.754c0.519-0.225,1.103-0.543,1.686-0.99c0.49-0.377,1.015-0.868,1.495-1.504
			c0.479,0.637,1,1.132,1.495,1.504c0.583,0.446,1.167,0.765,1.687,0.99c0.063,0.922,0.161,1.843,0.293,2.754
			c0.349,2.475,0.75,5.17,2.318,7.205c1.372,1.779,3.401,2.891,5.362,3.901c2.455,1.269,5.102,3.783,8.047,3.626
			C88.694,55.982,87.307,47.965,86.675,44.74L86.675,44.74z M86.675,44.74"/>
	</g>
	<path fill="#303030" d="M66.293,22.373v-2.646c0-0.814-0.657-1.47-1.471-1.47h-0.813c-0.813,0-1.47,0.656-1.47,1.47v2.646H66.293z
		 M66.293,22.373"/>
</g>
</svg>
