<?xml version="1.0" encoding="utf-8"?>
<!-- Generator: Adobe Illustrator 16.0.0, SVG Export Plug-In . SVG Version: 6.00 Build 0)  -->
<!DOCTYPE svg PUBLIC "-//W3C//DTD SVG 1.1//EN" "http://www.w3.org/Graphics/SVG/1.1/DTD/svg11.dtd">
<svg version="1.1" id="Capa_1" xmlns="http://www.w3.org/2000/svg" xmlns:xlink="http://www.w3.org/1999/xlink" x="0px" y="0px"
	 width="128px" height="128px" viewBox="0 0 128 128" enable-background="new 0 0 128 128" xml:space="preserve">
<circle fill="#FFFFFF" cx="64" cy="39.875" r="33.375"/>
<g>
	<path fill="#DF5900" d="M63.836,0.366c-22.191,0-40.182,17.991-40.182,40.182c0,32.096,40.182,87.691,40.182,87.691
		s40.184-53.574,40.184-87.691C104.02,18.356,86.028,0.366,63.836,0.366z M63.836,71.309c-16.987,0-30.76-13.772-30.76-30.761
		c0-16.987,13.773-30.761,30.76-30.761c16.986,0,30.76,13.774,30.76,30.761C94.596,57.537,80.822,71.309,63.836,71.309z"/>
	<path opacity="0.6" fill="#FF853F" d="M64.07,0.366c-0.102,0-0.07,0.005-0.07,0.009v9.42c0-0.001-0.032-0.008,0.07-0.008
		c16.987,0,30.644,13.774,30.644,30.761c0,16.989-13.597,30.761-30.585,30.761C64.026,71.309,64,71.301,64,71.3v56.512
		c0,0.278,0.07,0.428,0.07,0.428s40.184-53.574,40.184-87.691C104.254,18.356,86.262,0.366,64.07,0.366z"/>
</g>
<g>
	<g>
		<defs>
			<rect id="SVGID_1_" x="35.834" y="21.856" width="57.001" height="37.385"/>
		</defs>
		<clipPath id="SVGID_2_">
			<use xlink:href="#SVGID_1_"  overflow="visible"/>
		</clipPath>
		<path clip-path="url(#SVGID_2_)" d="M90.812,38.451c-0.49-0.677-12.206-16.595-27.241-16.595
			c-15.034,0-26.75,15.918-27.247,16.595c-0.654,0.904-0.654,2.132,0,3.035c0.497,0.687,12.213,16.597,27.247,16.597
			c15.042,0,26.751-15.918,27.241-16.597C91.474,40.583,91.474,39.355,90.812,38.451L90.812,38.451z M59.25,36.589
			c-0.934,1.322-1.15,3.041-0.644,5.12c0.336,1.392-0.514,2.783-1.907,3.118c-0.197,0.051-0.402,0.069-0.609,0.069
			c-1.159,0-2.216-0.791-2.509-1.976c-1.15-4.734,0.327-7.853,1.762-9.683c1.968-2.499,5.016-3.787,6.898-3.787h0.009
			c1.425,0,2.584,1.108,2.577,2.533c0,1.41-1.134,2.534-2.544,2.551C61.827,34.587,60.264,35.17,59.25,36.589L59.25,36.589z
			 M68.95,48.796c-1.796,0-3.248-1.443-3.248-3.239s1.452-3.247,3.248-3.247c1.787,0,3.238,1.451,3.238,3.247
			S70.737,48.796,68.95,48.796L68.95,48.796z M41.728,39.974c2.302-2.749,7.688-8.487,14.345-11.314
			c-3.849,2.414-6.417,6.692-6.417,11.572c0,4.045,1.77,7.68,4.569,10.171C48.428,47.404,43.814,42.456,41.728,39.974L41.728,39.974
			z M71.544,51.082c3.273-2.492,5.387-6.426,5.387-10.85c0-5.36-3.093-10-7.585-12.227C76.793,30.489,82.918,37,85.427,39.974
			C83.176,42.654,77.995,48.194,71.544,51.082L71.544,51.082z M71.544,51.082"/>
	</g>
</g>
</svg>
