<?xml version="1.0" encoding="utf-8"?>
<!-- Generator: Adobe Illustrator 19.2.1, SVG Export Plug-In . SVG Version: 6.00 Build 0)  -->
<svg version="1.1" id="Capa_1" xmlns="http://www.w3.org/2000/svg" xmlns:xlink="http://www.w3.org/1999/xlink" x="0px" y="0px"
	 viewBox="0 0 128 128" style="enable-background:new 0 0 128 128;" xml:space="preserve">
<style type="text/css">
	.st0{fill:#FFFFFF;}
	.st1{fill:#DF5900;}
	.st2{opacity:0.6;fill:#FF853F;enable-background:new    ;}
	.st3{clip-path:url(#SVGID_2_);fill:#333333;}
</style>
<circle class="st0" cx="64" cy="39.9" r="33.4"/>
<g>
	<path class="st1" d="M63.8,0.4c-22.2,0-40.2,18-40.2,40.2c0,32.1,40.2,87.7,40.2,87.7S104,74.7,104,40.5C104,18.4,86,0.4,63.8,0.4z
		 M63.8,71.3c-17,0-30.8-13.8-30.8-30.8c0-17,13.8-30.8,30.8-30.8c17,0,30.8,13.8,30.8,30.8C94.6,57.5,80.8,71.3,63.8,71.3z"/>
	<path class="st2" d="M64.1,0.4C64,0.4,64,0.4,64.1,0.4L64,9.8c0,0,0,0,0.1,0c17,0,30.6,13.8,30.6,30.8c0,17-13.6,30.8-30.6,30.8
		c-0.1,0-0.1,0-0.1,0v56.5c0,0.3,0.1,0.4,0.1,0.4s40.2-53.6,40.2-87.7C104.3,18.4,86.3,0.4,64.1,0.4z"/>
</g>
<g>
	<defs>
		<rect id="SVGID_1_" x="42.8" y="15" width="42.2" height="48.7"/>
	</defs>
	<clipPath id="SVGID_2_">
		<use xlink:href="#SVGID_1_"  style="overflow:visible;"/>
	</clipPath>
	<path class="st3" d="M54.7,63.6c-3.2-6.7-1.5-10.6,1-14.2c2.7-4,3.4-7.9,3.4-7.9s2.1,2.8,1.3,7.1c3.8-4.2,4.5-10.9,3.9-13.5
		c8.6,6,12.2,18.9,7.3,28.5c26.2-14.8,6.5-37,3.1-39.5c1.1,2.5,1.4,6.7-0.9,8.8C69.8,18,60.1,15,60.1,15c1.1,7.6-4.1,16-9.2,22.3
		c-0.2-3-0.4-5.2-2-8.1c-0.4,5.5-4.6,10.1-5.7,15.6C41.6,52.3,44.4,57.8,54.7,63.6L54.7,63.6z M54.7,63.6"/>
</g>
</svg>
