<?xml version="1.0" encoding="utf-8"?>
<!-- Generator: Adobe Illustrator 16.0.0, SVG Export Plug-In . SVG Version: 6.00 Build 0)  -->
<!DOCTYPE svg PUBLIC "-//W3C//DTD SVG 1.1//EN" "http://www.w3.org/Graphics/SVG/1.1/DTD/svg11.dtd">
<svg version="1.1" id="Capa_1" xmlns="http://www.w3.org/2000/svg" xmlns:xlink="http://www.w3.org/1999/xlink" x="0px" y="0px"
	 width="128px" height="128px" viewBox="0 0 128 128" enable-background="new 0 0 128 128" xml:space="preserve">
<circle fill="#FFFFFF" cx="64" cy="39.875" r="33.375"/>
<g>
	<path fill="#DF5900" d="M63.836,0.366c-22.191,0-40.182,17.991-40.182,40.182c0,32.096,40.182,87.691,40.182,87.691
		s40.184-53.574,40.184-87.691C104.02,18.356,86.028,0.366,63.836,0.366z M63.836,71.309c-16.987,0-30.76-13.772-30.76-30.761
		c0-16.987,13.773-30.761,30.76-30.761c16.986,0,30.76,13.774,30.76,30.761C94.596,57.537,80.822,71.309,63.836,71.309z"/>
	<path opacity="0.6" fill="#FF853F" d="M64.07,0.366c-0.102,0-0.07,0.005-0.07,0.009v9.42c0-0.001-0.032-0.008,0.07-0.008
		c16.987,0,30.644,13.774,30.644,30.761c0,16.989-13.597,30.761-30.585,30.761C64.026,71.309,64,71.301,64,71.3v56.512
		c0,0.278,0.07,0.428,0.07,0.428s40.184-53.574,40.184-87.691C104.254,18.356,86.262,0.366,64.07,0.366z"/>
</g>
<g>
	<circle fill="#303030" cx="57.583" cy="64.711" r="1.561"/>
	<path fill="#303030" d="M80.91,30.244c0-8.034-6.513-14.547-14.546-14.547c-5.662,0-10.567,3.234-12.971,7.955
		c-0.334-0.036-0.672-0.056-1.015-0.056c-5.108,0-9.249,4.141-9.249,9.249c0,4.034,2.583,7.464,6.186,8.728
		c-0.696,1.167-1.096,2.531-1.096,3.988c0,3.052,1.752,5.692,4.306,6.975c-0.449,0.777-0.708,1.678-0.708,2.642
		c0,1.413,0.556,2.695,1.459,3.643c-0.324,0.465-0.514,1.029-0.514,1.639c0,1.586,1.286,2.872,2.873,2.872
		c1.587,0,2.874-1.286,2.874-2.872c0-0.064-0.003-0.127-0.007-0.19c2.236-0.616,3.878-2.661,3.878-5.092
		c0-0.128-0.006-0.254-0.015-0.38c3.339-0.192,5.988-2.96,5.988-6.347c0-1.374-0.438-2.644-1.178-3.683
		C74.831,44.347,80.91,38.006,80.91,30.244z M66.698,18.782c-3.373,0-6.399,1.483-8.464,3.831c2.063-2.625,5.267-4.311,8.863-4.311
		c6.222,0,11.266,5.044,11.266,11.265c0,2.85-1.059,5.452-2.804,7.437c1.506-1.915,2.403-4.331,2.403-6.957
		C77.963,23.826,72.92,18.782,66.698,18.782z"/>
</g>
</svg>
