<?xml version="1.0" encoding="utf-8"?>
<!-- Generator: Adobe Illustrator 16.0.0, SVG Export Plug-In . SVG Version: 6.00 Build 0)  -->
<!DOCTYPE svg PUBLIC "-//W3C//DTD SVG 1.1//EN" "http://www.w3.org/Graphics/SVG/1.1/DTD/svg11.dtd">
<svg version="1.1" id="Capa_1" xmlns="http://www.w3.org/2000/svg" xmlns:xlink="http://www.w3.org/1999/xlink" x="0px" y="0px"
	 width="128px" height="128px" viewBox="0 0 128 128" enable-background="new 0 0 128 128" xml:space="preserve">
<circle fill="#FFFFFF" cx="64" cy="39.875" r="33.375"/>
<g>
	<path fill="#DF5900" d="M63.836,0.366c-22.191,0-40.182,17.991-40.182,40.182c0,32.096,40.182,87.691,40.182,87.691
		s40.184-53.574,40.184-87.691C104.02,18.356,86.028,0.366,63.836,0.366z M63.836,71.309c-16.987,0-30.76-13.772-30.76-30.761
		c0-16.987,13.773-30.761,30.76-30.761c16.986,0,30.76,13.774,30.76,30.761C94.596,57.537,80.822,71.309,63.836,71.309z"/>
	<path opacity="0.6" fill="#FF853F" d="M64.07,0.366c-0.102,0-0.07,0.005-0.07,0.009v9.42c0-0.001-0.032-0.008,0.07-0.008
		c16.987,0,30.644,13.774,30.644,30.761c0,16.989-13.597,30.761-30.585,30.761C64.026,71.309,64,71.301,64,71.3v56.512
		c0,0.278,0.07,0.428,0.07,0.428s40.184-53.574,40.184-87.691C104.254,18.356,86.262,0.366,64.07,0.366z"/>
</g>
<g>
	<g>
		<defs>
			<rect id="SVGID_1_" x="37.294" y="28.491" width="53.685" height="22.803"/>
		</defs>
		<clipPath id="SVGID_2_">
			<use xlink:href="#SVGID_1_"  overflow="visible"/>
		</clipPath>
		<path clip-path="url(#SVGID_2_)" fill="#303030" d="M90.591,32.616c-0.646-2.147-2.66-3.648-4.9-3.648
			c-0.496,0-0.992,0.073-1.472,0.217c-2.024,0.607-3.47,2.427-3.632,4.509c-0.085,0.019-0.167,0.041-0.247,0.065
			c-2.102,0.63-3.298,2.853-2.669,4.953c0.063,0.211,0.146,0.418,0.247,0.62c-0.594,0.681-0.807,1.627-0.542,2.511
			c0.335,1.115,1.382,1.896,2.547,1.896c0.258,0,0.516-0.038,0.765-0.113c1.022-0.307,1.749-1.192,1.874-2.227
			c0.022-0.006,0.043-0.012,0.064-0.019c1.12-0.336,2.029-1.147,2.496-2.207c0.188,0.021,0.379,0.031,0.567,0.031
			c0.496,0,0.991-0.072,1.47-0.216c1.309-0.393,2.388-1.271,3.035-2.476C90.843,35.309,90.983,33.925,90.591,32.616L90.591,32.616z
			 M90.591,32.616"/>
	</g>
	<path fill="#303030" d="M76.104,42.471H75.63v-3.9c0-0.909-0.738-1.651-1.646-1.658l-0.709-0.006
		c-0.646-0.004-1.459-0.481-1.777-1.043l-3.434-6.045c-0.425-0.745-1.426-1.328-2.283-1.328H50.627c-0.85,0-1.876,0.56-2.338,1.274
		l-4.032,6.249c-0.365,0.565-1.227,1.17-1.881,1.322l-3.534,0.819c-0.854,0.199-1.548,1.072-1.548,1.947v6.161
		c0,0.909,0.74,1.648,1.649,1.648h2.634c0.559,1.917,2.331,3.323,4.426,3.323c2.096,0,3.868-1.406,4.426-3.323h9.957
		c0.559,1.917,2.33,3.323,4.426,3.323c2.095,0,3.869-1.406,4.427-3.323h4.742c0.908,0,1.648-0.74,1.648-1.648v-1.03h0.474
		c0.483,0,1.061-0.24,1.061-1.38C77.164,42.711,76.587,42.471,76.104,42.471L76.104,42.471z M46.003,48.914
		c-1.265,0-2.29-1.025-2.29-2.29c0-1.265,1.025-2.29,2.29-2.29s2.291,1.025,2.291,2.29C48.293,47.889,47.268,48.914,46.003,48.914
		L46.003,48.914z M57.111,37.337h-9.593c-0.603,0-0.839-0.42-0.525-0.935l2.922-4.786c0.314-0.514,1.064-0.935,1.667-0.935h5.529
		V37.337z M64.812,48.914c-1.265,0-2.291-1.025-2.291-2.29c0-1.265,1.025-2.29,2.291-2.29s2.291,1.025,2.291,2.29
		C67.103,47.889,66.077,48.914,64.812,48.914L64.812,48.914z M68.152,37.337h-8.406v-6.655h4.82c0.602,0,1.329,0.434,1.615,0.964
		l2.548,4.727C69.015,36.903,68.755,37.337,68.152,37.337L68.152,37.337z M68.152,37.337"/>
</g>
</svg>
