<?xml version="1.0" encoding="utf-8"?>
<!-- Generator: Adobe Illustrator 16.0.0, SVG Export Plug-In . SVG Version: 6.00 Build 0)  -->
<!DOCTYPE svg PUBLIC "-//W3C//DTD SVG 1.1//EN" "http://www.w3.org/Graphics/SVG/1.1/DTD/svg11.dtd">
<svg version="1.1" id="Capa_1" xmlns="http://www.w3.org/2000/svg" xmlns:xlink="http://www.w3.org/1999/xlink" x="0px" y="0px"
	 width="128px" height="128px" viewBox="0 0 128 128" enable-background="new 0 0 128 128" xml:space="preserve">
<circle fill="#FFFFFF" cx="64" cy="39.875" r="33.375"/>
<g>
	<path fill="#198199" d="M63.882,0.366c-22.19,0-40.182,17.991-40.182,40.182c0,32.097,40.182,87.691,40.182,87.691
		s40.184-53.574,40.184-87.691C104.065,18.356,86.073,0.366,63.882,0.366z M63.882,71.309c-16.986,0-30.76-13.771-30.76-30.761
		c0-16.987,13.773-30.761,30.76-30.761s30.76,13.774,30.76,30.761C94.642,57.537,80.868,71.309,63.882,71.309z"/>
	<path opacity="0.6" fill="#3BBCF4" enable-background="new    " d="M64.116,0.366c-0.103,0-0.07,0.005-0.07,0.009v9.42
		c0-0.001-0.032-0.008,0.07-0.008c16.986,0,30.644,13.774,30.644,30.761c0,16.989-13.597,30.761-30.585,30.761
		c-0.103,0-0.129-0.008-0.129-0.009v56.513c0,0.277,0.07,0.428,0.07,0.428S104.3,74.666,104.3,40.549
		C104.3,18.356,86.308,0.366,64.116,0.366z"/>
</g>
<path d="M-41.988,155.48C-42,153.176-42.008,154.832-41.988,155.48L-41.988,155.48z M-41.988,155.48"/>
<g>
	<path fill="#333333" d="M64.001,39.495c5.034,0,9.115-4.957,9.115-11.072c0-6.115-1.34-11.073-9.115-11.073
		c-7.776,0-9.116,4.958-9.116,11.073C54.885,34.539,58.967,39.495,64.001,39.495z"/>
	<path fill="#333333" d="M81.198,55.955c-0.169-10.653-1.56-13.688-12.206-15.61c0,0-1.498,1.91-4.991,1.91s-4.992-1.91-4.992-1.91
		c-10.529,1.901-12.006,4.891-12.2,15.264c-0.016,0.846-0.023,0.891-0.025,0.792c0.001,0.186,0.001,0.526,0.001,1.121
		c0,0,2.534,5.11,17.217,5.11c14.682,0,17.216-5.11,17.216-5.11c0-0.382,0-0.647,0-0.828C81.215,56.753,81.209,56.635,81.198,55.955
		z"/>
</g>
</svg>
