<?xml version="1.0" encoding="utf-8"?>
<!-- Generator: Adobe Illustrator 16.0.0, SVG Export Plug-In . SVG Version: 6.00 Build 0)  -->
<!DOCTYPE svg PUBLIC "-//W3C//DTD SVG 1.1//EN" "http://www.w3.org/Graphics/SVG/1.1/DTD/svg11.dtd">
<svg version="1.1" id="Capa_1" xmlns="http://www.w3.org/2000/svg" xmlns:xlink="http://www.w3.org/1999/xlink" x="0px" y="0px"
	 width="1000px" height="1000px" viewBox="0 0 1000 1000" enable-background="new 0 0 1000 1000" xml:space="preserve">
<g>
	<path d="M401.301,331.878l-28.053-28.053c-47.993,36.08-80.041,92.076-84.049,156.087h40.088
		C333.295,405.859,359.282,359.821,401.301,331.878L401.301,331.878z M669.526,459.912h40.075
		c-4.008-64.011-34.016-120.007-82.106-156.087l-28.053,28.053C639.519,359.821,665.519,405.859,669.526,459.912L669.526,459.912z
		 M629.548,469.992c0-62.08-42.03-112.126-100.091-126.079v-14.088c0-16.018-14.075-30.008-30.118-30.008
		c-15.907,0-29.995,13.99-29.995,30.008v14.088c-58.061,13.953-100.091,63.999-100.091,126.079v110.062l-39.966,40.075v20.038
		h340.239v-20.038l-39.979-40.075V469.992z M499.339,700.183h8.027c14.076-1.955,24.046-12.023,28.054-24.046
		c2.053-4.008,4.007-9.97,4.007-16.03h-80.053C459.374,682.197,477.371,700.183,499.339,700.183L499.339,700.183z M499.339,700.183"
		/>
</g>
</svg>
