<?xml version="1.0" encoding="iso-8859-1"?>
<!-- Generator: Adobe Illustrator 19.1.0, SVG Export Plug-In . SVG Version: 6.00 Build 0)  -->
<svg version="1.1" id="Capa_1" xmlns="http://www.w3.org/2000/svg" xmlns:xlink="http://www.w3.org/1999/xlink" x="0px" y="0px"
	 viewBox="0 0 63.41 63.41" style="enable-background:new 0 0 63.41 63.41;" xml:space="preserve">
<g>
	<g id="group-18svg">
		<path id="path-1_8_" d="M40.589,53.903c0,5.25-4.253,9.507-9.5,9.507h-14c-5.247,0-9.5-4.257-9.5-9.507V24.882
			c0-5.25,4.253-9.506,9.5-9.506h14c5.247,0,9.5,4.256,9.5,9.506V53.903z M37.589,24.882c0-3.592-2.91-6.504-6.5-6.504h-14
			c-3.59,0-6.5,2.912-6.5,6.504v29.021c0,3.592,2.91,6.505,6.5,6.505h14c3.59,0,6.5-2.913,6.5-6.505V24.882z"/>
		<path id="path-2_8_" d="M37.162,55.404h-2.756c-5.097,0-8.817-3.893-8.817-8.678V31.907c0-4.701,3.72-8.526,8.817-8.526h2.756
			c0.828,0,1.5,0.672,1.5,1.501c0,0.83-0.672,1.501-1.5,1.501h-2.756c-3.443,0-5.817,2.478-5.817,5.524v14.819
			c0,3.13,2.374,5.676,5.817,5.676h2.756c0.828,0,1.5,0.672,1.5,1.501C38.662,54.732,37.99,55.404,37.162,55.404z"/>
		<path id="path-3_8_" d="M29.089,17.877c-0.828,0-1.5-0.671-1.5-1.501v-5.47c0-1.037-0.949-2.422-1.343-2.538l-5.383,0.003
			c-0.436,0.078-1.274,1.527-1.274,2.535v5.47c0,0.83-0.672,1.501-1.5,1.501c-0.828,0-1.5-0.671-1.5-1.501v-5.47
			c0-2.23,1.413-5.537,3.954-5.537h5.515c2.732,0,4.531,3.549,4.531,5.537v5.47C30.589,17.206,29.917,17.877,29.089,17.877z"/>
		<path id="path-4_7_" d="M35.939,8.88c-0.636,0-1.226-0.407-1.429-1.044c-0.252-0.79,0.183-1.635,0.972-1.887l18.383-5.877
			c0.79-0.253,1.634,0.185,1.885,0.974c0.252,0.789-0.184,1.634-0.973,1.886L36.395,8.808C36.243,8.857,36.089,8.88,35.939,8.88z"/>
		<path id="path-5_4_" d="M54.321,19.1c-0.151,0-0.304-0.023-0.456-0.071l-18.383-5.877c-0.789-0.252-1.224-1.097-0.972-1.887
			c0.252-0.789,1.098-1.225,1.885-0.973l18.382,5.877c0.789,0.252,1.225,1.097,0.973,1.887C55.547,18.693,54.957,19.1,54.321,19.1z"
			/>
		<path id="path-6_3_" d="M54.162,11.373h-11c-0.828,0-1.5-0.672-1.5-1.501c0-0.83,0.672-1.501,1.5-1.501h11
			c0.828,0,1.5,0.671,1.5,1.501C55.662,10.701,54.99,11.373,54.162,11.373z"/>
	</g>
</g>
<g>
</g>
<g>
</g>
<g>
</g>
<g>
</g>
<g>
</g>
<g>
</g>
<g>
</g>
<g>
</g>
<g>
</g>
<g>
</g>
<g>
</g>
<g>
</g>
<g>
</g>
<g>
</g>
<g>
</g>
</svg>
