<?xml version="1.0" encoding="utf-8"?>
<!-- Generator: Adobe Illustrator 16.0.0, SVG Export Plug-In . SVG Version: 6.00 Build 0)  -->
<!DOCTYPE svg PUBLIC "-//W3C//DTD SVG 1.1//EN" "http://www.w3.org/Graphics/SVG/1.1/DTD/svg11.dtd">
<svg version="1.1" id="Capa_1" xmlns="http://www.w3.org/2000/svg" xmlns:xlink="http://www.w3.org/1999/xlink" x="0px" y="0px"
	 width="1000px" height="1000px" viewBox="0 0 1000 1000" enable-background="new 0 0 1000 1000" xml:space="preserve">
<g>
	<g>
		<defs>
			<rect id="SVGID_1_" x="322" y="295" width="355.92" height="410"/>
		</defs>
		<clipPath id="SVGID_2_">
			<use xlink:href="#SVGID_1_"  overflow="visible"/>
		</clipPath>
		<path clip-path="url(#SVGID_2_)" d="M422.113,704.602c-27.297-56.805-12.758-89.352,8.223-120.02
			c22.976-33.582,28.898-66.824,28.898-66.824s18.059,23.48,10.836,60.203c31.907-35.52,37.93-92.113,33.114-113.785
			c72.125,50.402,102.949,159.539,61.406,240.425c220.949-125.016,54.961-312.07,26.062-333.141c9.633,21.07,11.461,56.738-8,74.051
			C549.711,320.602,468.262,295,468.262,295c9.633,64.418-34.918,134.859-77.875,187.492c-1.512-25.687-3.114-43.41-16.621-67.992
			c-3.032,46.664-38.692,84.699-48.352,131.453C312.336,609.266,335.215,655.625,422.113,704.602L422.113,704.602z M422.113,704.602
			"/>
	</g>
</g>
</svg>
