<?xml version="1.0" encoding="utf-8"?>
<!-- Generator: Adobe Illustrator 16.0.0, SVG Export Plug-In . SVG Version: 6.00 Build 0)  -->
<!DOCTYPE svg PUBLIC "-//W3C//DTD SVG 1.1//EN" "http://www.w3.org/Graphics/SVG/1.1/DTD/svg11.dtd">
<svg version="1.1" id="Capa_1" xmlns="http://www.w3.org/2000/svg" xmlns:xlink="http://www.w3.org/1999/xlink" x="0px" y="0px"
	 width="1000px" height="1000px" viewBox="0 0 1000 1000" enable-background="new 0 0 1000 1000" xml:space="preserve">
<g>
	<path d="M657.809,425.588c-15.949-29.476-35.078-51.688-42.563-59.87c-21.804-23.837-25.021-81.98-24.422-102.372
		c0.284-9.375-5.876-17.253-13.768-17.6c-7.876-0.353-14.535,6.976-14.826,16.359c-0.113,3.627-2.354,89.282,33.644,128.634
		c20.806,22.745,59.187,76.313,55.529,116.253c-1.369,14.947-8.809,26.896-22.743,36.529c-20.259,14.006-36.587,12.172-57.256,9.848
		c-2.216-0.25-4.465-0.502-6.748-0.736c1.818-2.643,3.584-5.262,5.302-7.812c4.514-6.707,8.778-13.043,12.878-18.057
		c5.013-6.133,8.648-8.012,10.231-7.754c1.128,0.182,1.984,2.686,2.377,2.43c0.116-0.076-0.092-0.217-0.092-0.217
		s15.147-4.387,16.667-9.582c0.385-1.314-5.29-12.295-15.956-14.342c-8.585-1.648-17.494,3.109-26.508,14.135
		c-4.721,5.775-9.256,12.512-14.057,19.645c-4.715,7.006-9.48,14.084-14.562,20.539c-12.375,0.498-25.875,3.008-40.932,9.891
		c-15.062-6.883-28.562-9.391-40.937-9.891c-5.083-6.455-9.849-13.533-14.564-20.539c-4.801-7.133-9.336-13.869-14.058-19.645
		c-9.013-11.025-17.93-15.78-26.507-14.135c-10.667,2.047-16.341,13.027-15.957,14.342c1.444,4.936,15.176,9.139,16.546,9.547
		c0.163-0.605,1.458-2.025,2.406-2.178c1.58-0.254,5.218,1.621,10.232,7.754c4.1,5.014,8.365,11.35,12.879,18.057
		c1.717,2.553,3.483,5.17,5.302,7.812c-2.283,0.236-4.532,0.486-6.748,0.736c-20.673,2.32-37.001,4.158-57.259-9.848
		c-13.935-9.633-21.374-21.582-22.743-36.529c-3.658-39.939,34.723-93.508,55.529-116.252
		c35.999-39.353,33.758-125.008,33.645-128.635c-0.292-9.376-6.923-16.698-14.811-16.351c-7.891,0.337-14.059,8.215-13.783,17.592
		c0.6,20.392-2.618,78.535-24.423,102.372c-7.485,8.182-26.614,30.394-42.562,59.87c-16.93,31.29-24.345,59.916-22.04,85.082
		c1.641,17.924,9.358,43.27,36.799,62.24c28.197,19.494,51.654,16.855,74.343,14.309c11.045-1.242,21.74-2.439,33.206-1.123
		c9.707,7.627,20.97,12.914,34.421,13.6c0.318,0.039,0.64,0.062,0.966,0.062c0.039,0,0.078-0.002,0.116-0.002
		c0.038,0,0.077,0.002,0.115,0.002c0.326,0,0.648-0.023,0.966-0.062c13.447-0.686,24.712-5.971,34.418-13.598
		c11.467-1.316,22.161-0.121,33.205,1.119c22.687,2.551,46.146,5.188,74.341-14.307c27.441-18.971,35.158-44.316,36.801-62.24
		C682.152,485.503,674.738,456.877,657.809,425.588z"/>
	<path d="M404.555,521.439c0.116,0.074,0.092-0.217,0.092-0.217s-0.047-0.014-0.12-0.035
		C404.497,521.303,404.492,521.398,404.555,521.439z"/>
	<path d="M441.904,676.41l-7-58.451l-28.994,44.85c-4.312,3.668-7.614,9.076-9.067,15.646c-3.306,14.957,4.218,30.268,16.805,34.195
		s25.471-5.012,28.777-19.969c0.419-1.896,0.662-3.797,0.745-5.68h0.001l0-0.006C443.331,683.34,442.88,679.754,441.904,676.41z"/>
	<path d="M523.119,720.824c-0.595-3.59-1.77-6.938-3.403-9.896l-18.795-54.654l-18.904,51.902
		c-3.429,4.807-5.521,11.01-5.579,17.803c-0.134,15.463,10.307,28.129,23.32,28.287c13.016,0.16,23.672-12.248,23.806-27.711
		c0.018-1.959-0.137-3.873-0.443-5.725L523.119,720.824z"/>
	<path d="M594.091,662.809l-28.993-44.85l-7,58.451c-0.977,3.344-1.428,6.93-1.268,10.586v0.006c0.083,1.883,0.326,3.783,0.746,5.68
		c3.306,14.957,16.189,23.896,28.776,19.969s20.11-19.238,16.805-34.195C601.704,671.885,598.403,666.477,594.091,662.809z"/>
</g>
</svg>
