<?xml version="1.0" encoding="utf-8"?>
<!-- Generator: Adobe Illustrator 16.0.0, SVG Export Plug-In . SVG Version: 6.00 Build 0)  -->
<!DOCTYPE svg PUBLIC "-//W3C//DTD SVG 1.1//EN" "http://www.w3.org/Graphics/SVG/1.1/DTD/svg11.dtd">
<svg version="1.1" id="Capa_1" xmlns="http://www.w3.org/2000/svg" xmlns:xlink="http://www.w3.org/1999/xlink" x="0px" y="0px"
	 width="1000px" height="1000px" viewBox="0 0 1000 1000" enable-background="new 0 0 1000 1000" xml:space="preserve">
<g>
	<path d="M657.861,342.138c-42.168-42.164-98.229-65.386-157.861-65.386c-59.632,0-115.692,23.223-157.862,65.386
		c-42.164,42.17-65.386,98.23-65.386,157.862c0,59.633,23.223,115.693,65.386,157.861c42.17,42.166,98.23,65.387,157.862,65.387
		c30.131,0,59.373-5.906,86.906-17.549l-10.762-25.438c-24.107,10.199-49.727,15.369-76.145,15.369
		c-107.871,0-195.63-87.76-195.63-195.631c0-107.871,87.76-195.63,195.63-195.63c107.871,0,195.631,87.76,195.631,195.63
		c0,47.248-29.031,68.768-56.006,68.768c-26.971,0-56.002-21.52-56.002-68.768c0-46.111-37.512-83.624-83.623-83.624
		c-46.111,0-83.624,37.517-83.624,83.624c0,46.107,37.513,83.623,83.624,83.623c27.299,0,51.586-13.152,66.857-33.453
		c3.91,7.898,8.832,15.041,14.766,21.281c15.293,16.078,35.895,24.934,58.002,24.934c22.111,0,42.709-8.855,58.006-24.934
		c16.758-17.621,25.617-42.332,25.617-71.451C723.248,440.368,700.027,384.308,657.861,342.138L657.861,342.138z M500,556.006
		c-30.882,0-56.005-25.123-56.005-56.006c0-30.882,25.124-56.005,56.005-56.005c30.883,0,56.006,25.124,56.006,56.005
		C556.006,530.883,530.883,556.006,500,556.006L500,556.006z M500,556.006"/>
</g>
</svg>
