<?xml version="1.0" encoding="utf-8"?>
<!-- Generator: Adobe Illustrator 16.0.0, SVG Export Plug-In . SVG Version: 6.00 Build 0)  -->
<!DOCTYPE svg PUBLIC "-//W3C//DTD SVG 1.1//EN" "http://www.w3.org/Graphics/SVG/1.1/DTD/svg11.dtd">
<svg version="1.1" xmlns="http://www.w3.org/2000/svg" xmlns:xlink="http://www.w3.org/1999/xlink" x="0px" y="0px" width="800px"
	 height="800px" viewBox="0 0 800 800" enable-background="new 0 0 800 800" xml:space="preserve">
<g id="Background">
	<g>
		<polygon fill="#C1E0DC" points="477.863,249.447 317.189,210.49 162,262.938 162,611.004 317.248,558.556 477.863,598.512 
			638,546.063 638,196.999 		"/>
	</g>
</g>
<g id="Objects">
	<g>
		<g>
			<g>
				<polygon fill="#FFFFFF" points="320,548 172,598 172,270 320,220 				"/>
				<polygon fill="#FFFFFF" points="626,538 478,588 478,260 626,210 				"/>
				<polygon fill="#FFFFFF" points="478,588 320,548 320,220 478,260 				"/>
				<g>
					<defs>
						<polygon id="XMLID_1_" points="478,281.5 320,240.5 320,240.333 192,284.354 192,570.133 320,526.333 320,526.334 478,566.5 
							606,523.646 606,237.867 						"/>
					</defs>
					<use xlink:href="#XMLID_1_"  overflow="visible" fill="#F4E9D3"/>
					<clipPath id="XMLID_3_">
						<use xlink:href="#XMLID_1_"  overflow="visible"/>
					</clipPath>
					<g clip-path="url(#XMLID_3_)">
						<path fill="#B8CD65" d="M543,234c0,0-129.651-7.253-214.672-11.077c3.402,21.093,9.261,56.815,12.273,71.663
							c24.776-3.633,56.599-8.453,63.222-10.187l-10.596-45.928l8.077-2.604l16.266,77.176l68.758,1.946l44.631-33.967L543,234z"/>
						<path fill="#B8CD65" d="M312.389,306.795C315.23,323.49,317.624,337.372,318,339l-0.054,0.003
							c0.138,0.727,0.221,1.164,0.221,1.164L287,345l-1-8l22.22-4.062l-14.493-88.243l7.982-1.132c0,0,4.896,29.174,9.329,55.289
							c2.771-0.393,10.843-1.542,21.161-3.041l-12.03-73.251c-37.086-1.625-63.864-2.475-64.169-1.561c-1,3-38,40-38,40l57,134
							l87-13l49.691-63.495l-5.878-25.478L312.389,306.795z"/>
						<polygon fill="#F9D1B1" points="200,275 171,277 172.946,329 224.955,329 						"/>
						<polygon fill="#F9D1B1" points="253.652,425.936 225.426,405.512 202.108,446.941 197.751,444.489 221.349,402.562 
							182.077,374.146 187.439,371.854 255.521,421.117 261,407 227.265,334 173.134,334 178,464 235,474 						"/>
						<path fill="#B8CD65" d="M185,486c0,0,7,108,10,107s61-31,61-31l3-31l-25-36C234,495,188,485,185,486z"/>
						<polygon fill="#F9D1B1" points="282,527 285,544 402,577 404,512 351,502 						"/>
						<path fill="#B8CD65" d="M494.3,538h-82.84L411,561l115,35l11.986-4.655c-2.786-3.523-5.555-7.062-8.29-10.625
							c-5.619-7.32-11.202-14.677-16.887-21.951L512,559L494.3,538z"/>
						<polygon fill="#B8CD65" points="455.373,491.815 412,511 411.56,533 490.086,533 						"/>
						<polygon fill="#F9D1B1" points="517.73,458.453 532.561,485.334 560.837,469.115 545.622,442.451 						"/>
						<polygon fill="#F9D1B1" points="579.265,263 637.936,322.328 638.928,321.713 644,202 601.799,231.013 613,234 						"/>
						<polygon fill="#F9D1B1" points="538.213,392.622 564.086,438.496 635.865,393.979 638.447,333.052 636.855,331.443 						"/>
						<polygon fill="#F9D1B1" points="631.68,326.208 573.809,267.69 540.251,296.539 577.356,359.9 						"/>
						<polygon fill="#F9D1B1" points="513.293,385.792 485.236,393.864 491.961,422.198 484.979,423.855 478.331,395.85 450,404 
							463,481.998 542.251,436.542 						"/>
						<path fill="#F9D1B1" d="M614,527l-15,9l-34.796-60.982l-34.754,19.836l-3.283-5.853l0.169-0.097l-14.831-26.88l-47.442,27.219
							L519,557l-1.502,0.43c5.316,6.799,10.626,13.604,16.033,20.331c3.135,3.9,6.301,7.776,9.498,11.626L629,556l6.498-153.349
							l-67.884,42.102L614,527z"/>
						<polygon fill="#F9D1B1" points="534.719,301.294 502.384,329.091 534.685,386.365 571.255,363.684 						"/>
						<polygon fill="#F4E9D3" points="240,334 240,329 224.955,329 172.946,329 153,329 150,334 173.134,334 227.265,334 						"/>
						<polygon fill="#F4E9D3" points="182.077,374.146 221.349,402.562 197.751,444.489 202.108,446.941 225.426,405.512 
							253.652,425.936 254.992,426.905 257.923,422.854 255.521,421.117 187.439,371.854 						"/>
						<path fill="#F4E9D3" d="M671.123,372.111l-35.258,21.867l-71.779,44.518l-25.873-45.875l98.643-61.178l1.592,1.608
							l21.675,21.918l5.104-5.046l-22.113-22.361l3.793-2.353l-3.782-6.1l-4.195,2.602l-0.992,0.615L579.265,263L613,234
							l-11.201-2.987L598,230l-29.311,22.307l-2.609-2.639l-5.104,5.046l1.954,1.976l-31.974,24.333l-44.631,33.967L485,316
							l11.904,13.605L502,366l11.293,19.792l28.958,50.75L463,481.998l-3.285,1.884L459,483l-6,6l2.373,2.815L490.086,533H411.56
							H409l-3,5h5.46h82.84l17.7,21l0.81-0.231l4.688-1.339L519,557l-54.938-67.757l47.442-27.219l14.831,26.88l-0.169,0.097
							l3.283,5.853l34.754-19.836L599,536l15-9l-46.386-82.247l67.884-42.102l39.407-24.44L671.123,372.111z M573.809,267.69
							l57.871,58.518L577.356,359.9l-37.105-63.361L573.809,267.69z M502.384,329.091l32.335-27.797l36.536,62.39l-36.57,22.681
							L502.384,329.091z M532.561,485.334l-14.83-26.881l27.892-16.002l15.215,26.664L532.561,485.334z"/>
						<path fill="#F4E9D3" d="M393.226,238.472l10.596,45.928c-6.623,1.733-38.445,6.554-63.222,10.187
							c-3.012-14.848-8.871-50.569-12.273-71.663c-1.571-9.738-2.618-16.359-2.618-16.359l-7.982,1.132l2.441,14.865l12.03,73.251
							c-10.317,1.499-18.39,2.648-21.161,3.041c-4.432-26.115-9.329-55.289-9.329-55.289l-7.982,1.132l14.493,88.243L286,337l1,8
							l31.167-4.833c0,0-0.083-0.437-0.221-1.164L318,339c-0.376-1.628-2.77-15.51-5.611-32.205l93.425-13.768l5.878,25.478
							l2.116,9.171l5.021,0.993L420,327l0.518,0.04l-2.949-13.996l-16.266-77.176L393.226,238.472z"/>
						<polygon fill="#F9D1B1" points="353,410 318.774,415.229 314.796,445.795 307.681,444.87 311.39,416.357 281,421 257,482 
							273,500 345,481 						"/>
						<polygon fill="#B8CD65" points="418.829,328.669 380,384 500,362 485,332 420.518,327.04 420,327 						"/>
						<polygon fill="#F9D1B1" points="373,412 370.597,435 437.016,435 433,406 						"/>
						<polygon fill="#F9D1B1" points="366,479 407,490 442,471 438.677,447 369.343,447 						"/>
						<path fill="#F4E9D3" d="M491.961,422.198l-6.725-28.334l-2.57-10.83c-1.892,1.548-4.091,2.687-6.584,3.339l2.249,9.477
							l6.647,28.006L491.961,422.198z"/>
						<path fill="#F4E9D3" d="M314.796,445.795l3.978-30.566l1.216-9.348c-2.318,0.775-4.776,1.061-7.339,0.786l-1.261,9.69
							l-3.709,28.513L314.796,445.795z"/>
					</g>
				</g>
				<polygon opacity="0.08" fill="#0D2424" points="320,526.334 320,240.5 478,281.5 478,566.5 				"/>
			</g>
		</g>
	</g>
</g>
</svg>
