<?xml version="1.0" encoding="utf-8"?>
<!-- Generator: Adobe Illustrator 16.0.0, SVG Export Plug-In . SVG Version: 6.00 Build 0)  -->
<!DOCTYPE svg PUBLIC "-//W3C//DTD SVG 1.1//EN" "http://www.w3.org/Graphics/SVG/1.1/DTD/svg11.dtd">
<svg version="1.1" id="Capa_1" xmlns="http://www.w3.org/2000/svg" xmlns:xlink="http://www.w3.org/1999/xlink" x="0px" y="0px"
	 width="1000px" height="1000px" viewBox="0 0 1000 1000" enable-background="new 0 0 1000 1000" xml:space="preserve">
<g>
	<path d="M670.104,715.989H329.896c-74.835,0-135.719-61.265-135.719-136.568c0-32.68,11.658-64.302,32.826-89.041
		c15.927-18.613,36.218-32.393,59.107-40.224c4.007-49.24,45.145-88.072,95.135-88.072c11.564,0,23.066,2.135,33.845,6.238
		c16.593-30.9,32.198-45.433,42.888-53.858c25.316-19.954,56.545-29.653,95.471-29.653c51.747,0,94.915,19.282,124.838,55.762
		c23.984,29.239,37.959,68.407,39.786,111.088c22.118,8.409,41.607,22.428,56.767,40.918c19.979,24.367,30.981,55.208,30.981,86.842
		C805.822,654.725,744.939,715.989,670.104,715.989z M381.246,387.084c-38.85,0-70.456,31.838-70.456,70.973
		c0,0.407,0.003,0.814,0.011,1.223l0.177,9.781l-9.452,2.522c-21.651,5.779-40.852,17.899-55.528,35.049
		c-17.295,20.214-26.821,46.063-26.821,72.788c0,61.52,49.668,111.568,110.719,111.568h340.207
		c61.051,0,110.719-50.049,110.719-111.568c0-25.87-8.99-51.082-25.313-70.991c-13.968-17.037-32.427-29.422-53.38-35.818
		l-8.823-2.693l-0.027-9.226c-0.117-40.4-12.306-77.429-34.319-104.265c-25.016-30.498-61.5-46.617-105.509-46.617
		c-72.567,0-101.237,38.597-121.41,80.306l-5.717,11.82l-11.525-6.291C404.537,390.044,392.935,387.084,381.246,387.084z"/>
</g>
<path d="M381.246,401.144c-31.097,0-56.396,25.531-56.396,56.913c0,3.232,0.277,6.411,0.845,9.718l2.278,13.251l-13.279,2.114
	c-22.461,3.575-43.064,15.164-58.012,32.635c-15.119,17.669-23.445,40.272-23.445,63.646c0,53.767,43.361,97.51,96.66,97.51h340.207
	c53.299,0,96.659-43.743,96.659-97.51c0-46.155-32.497-86.335-77.271-95.538l-11.358-2.334l0.782-11.569
	c0.202-2.988,0.305-5.917,0.305-8.706c0-37.388-11.056-71.457-31.131-95.93c-22.256-27.132-54.981-41.474-94.639-41.474
	c-71.216,0-95.044,40.679-115.02,85.998l-7.215,16.369l-13.58-11.644C407.52,405.92,394.596,401.144,381.246,401.144z"/>
</svg>
