<?xml version="1.0" encoding="utf-8"?>
<!-- Generator: Adobe Illustrator 16.0.0, SVG Export Plug-In . SVG Version: 6.00 Build 0)  -->
<!DOCTYPE svg PUBLIC "-//W3C//DTD SVG 1.1//EN" "http://www.w3.org/Graphics/SVG/1.1/DTD/svg11.dtd">
<svg version="1.1" id="Modo_de_aislamiento" xmlns="http://www.w3.org/2000/svg" xmlns:xlink="http://www.w3.org/1999/xlink"
	 x="0px" y="0px" width="800px" height="800px" viewBox="0 0 800 800" enable-background="new 0 0 800 800" xml:space="preserve">
<g>
	<path fill="#DF5900" d="M399.735,104.306c-102.632,0-185.829,83.203-185.829,185.83c0,148.441,185.829,405.559,185.829,405.559
		s185.839-247.776,185.839-405.559C585.574,187.509,502.368,104.306,399.735,104.306z M399.735,432.397
		c-78.563,0-142.257-63.69-142.257-142.262c0-78.56,63.693-142.258,142.257-142.258s142.258,63.698,142.258,142.258
		C541.993,368.707,478.299,432.397,399.735,432.397z"/>
	<path opacity="0.6" fill="#FF853F" d="M400.072,104.306c-0.478,0-1.072,0.025-1.072,0.039v43.569c0-0.004,0.601-0.036,1.072-0.036
		c78.565,0,142.09,63.698,142.09,142.258c0,78.571-63.44,142.262-142.005,142.262c-0.473,0-1.157-0.031-1.157-0.036v261.352
		c0,1.291,1.072,1.981,1.072,1.981s185.841-247.776,185.841-405.559C585.913,187.509,502.706,104.306,400.072,104.306z"/>
</g>
</svg>
