<?xml version="1.0" encoding="utf-8"?>
<!-- Generator: Adobe Illustrator 16.0.0, SVG Export Plug-In . SVG Version: 6.00 Build 0)  -->
<!DOCTYPE svg PUBLIC "-//W3C//DTD SVG 1.1//EN" "http://www.w3.org/Graphics/SVG/1.1/DTD/svg11.dtd">
<svg version="1.1" id="Capa_1" xmlns="http://www.w3.org/2000/svg" xmlns:xlink="http://www.w3.org/1999/xlink" x="0px" y="0px"
	 width="1000px" height="1000px" viewBox="0 0 1000 1000" enable-background="new 0 0 1000 1000" xml:space="preserve">
<g>
	<circle cx="444.47" cy="796.953" r="19.54"/>
	<path d="M736.423,365.571c0-100.552-81.512-182.063-182.062-182.063c-70.852,0-132.246,40.476-162.334,99.564
		c-4.172-0.455-8.409-0.696-12.702-0.696c-63.926,0-115.748,51.821-115.748,115.75c0,50.487,32.329,93.417,77.411,109.238
		c-8.705,14.609-13.721,31.673-13.721,49.914c0,38.197,21.942,71.251,53.898,87.303c-5.627,9.724-8.864,21.005-8.864,33.048
		c0,17.682,6.956,33.728,18.263,45.59c-4.049,5.818-6.43,12.885-6.43,20.511c0,19.858,16.1,35.958,35.958,35.958
		c19.859,0,35.958-16.1,35.958-35.958c0-0.8-0.036-1.591-0.087-2.377c27.979-7.695,48.537-33.301,48.537-63.724
		c0-1.6-0.076-3.178-0.188-4.749c41.785-2.406,74.93-37.042,74.93-79.431c0-17.19-5.469-33.093-14.735-46.103
		C660.337,542.082,736.423,462.717,736.423,365.571z M558.541,222.121c-42.207,0-80.076,18.553-105.916,47.941
		c25.814-32.847,65.904-53.944,110.92-53.944c77.87,0,140.993,63.125,140.993,140.994c0,35.67-13.252,68.241-35.094,93.073
		c18.847-23.974,30.089-54.209,30.089-87.07C699.534,285.246,636.411,222.121,558.541,222.121z"/>
</g>
</svg>
