<?xml version="1.0" encoding="utf-8"?>
<!-- Generator: Adobe Illustrator 16.0.0, SVG Export Plug-In . SVG Version: 6.00 Build 0)  -->
<!DOCTYPE svg PUBLIC "-//W3C//DTD SVG 1.1//EN" "http://www.w3.org/Graphics/SVG/1.1/DTD/svg11.dtd">
<svg version="1.1" id="Capa_1" xmlns="http://www.w3.org/2000/svg" xmlns:xlink="http://www.w3.org/1999/xlink" x="0px" y="0px"
	 width="128px" height="128px" viewBox="0 0 128 128" enable-background="new 0 0 128 128" xml:space="preserve">
<circle fill="#FFFFFF" cx="64" cy="39.875" r="33.375"/>
<g>
	<path fill="#DF5900" d="M63.836,0.366c-22.191,0-40.182,17.991-40.182,40.182c0,32.096,40.182,87.691,40.182,87.691
		s40.184-53.574,40.184-87.691C104.02,18.356,86.028,0.366,63.836,0.366z M63.836,71.309c-16.987,0-30.76-13.772-30.76-30.761
		c0-16.987,13.773-30.761,30.76-30.761c16.986,0,30.76,13.774,30.76,30.761C94.596,57.537,80.822,71.309,63.836,71.309z"/>
	<path opacity="0.6" fill="#FF853F" d="M64.07,0.366c-0.102,0-0.07,0.005-0.07,0.009v9.42c0-0.001-0.032-0.008,0.07-0.008
		c16.987,0,30.644,13.774,30.644,30.761c0,16.989-13.597,30.761-30.585,30.761C64.026,71.309,64,71.301,64,71.3v56.512
		c0,0.278,0.07,0.428,0.07,0.428s40.184-53.574,40.184-87.691C104.254,18.356,86.262,0.366,64.07,0.366z"/>
</g>
<g>
	<path fill="#303030" d="M70.1,16.476c-4.785,0-9.107,1.972-12.203,5.147c0,0-4.11,3.873-5.066,8.234
		c-0.956,4.362-2.509,12.309-2.509,12.309h3.705v3.466v0.06h5.108c0.743,0,1.344,0.603,1.344,1.345v0.956
		c0,0.742-0.602,1.345-1.344,1.345H54.05v3.59c0,0,0.56,1.786,1.899,1.786s5.691,0,5.691,0v4.571c0,0,0.437,2.24,2.711,2.24
		c2.275,0,12.784,0,12.784,0s2.353-0.381,2.353-2.285s0-11.136,0-11.136v-0.367c4.61-3.05,7.652-8.28,7.652-14.222
		C87.14,24.105,79.511,16.476,70.1,16.476z M59.057,35.953c-1.155,0-2.091-0.937-2.091-2.091c0-1.155,0.937-2.092,2.091-2.092
		s2.091,0.937,2.091,2.092C61.148,35.016,60.212,35.953,59.057,35.953z"/>
	<circle fill="#303030" cx="46.61" cy="45.931" r="1.195"/>
	<circle fill="#303030" cx="46.61" cy="49.607" r="1.195"/>
	<circle fill="#303030" cx="41.857" cy="47.813" r="1.494"/>
	<circle fill="#303030" cx="50.018" cy="47.813" r="0.658"/>
	<circle fill="#303030" cx="41.857" cy="42.881" r="1.494"/>
	<circle fill="#303030" cx="41.857" cy="52.746" r="1.494"/>
</g>
</svg>
