<?xml version="1.0" encoding="utf-8"?>
<!-- Generator: Adobe Illustrator 16.0.0, SVG Export Plug-In . SVG Version: 6.00 Build 0)  -->
<!DOCTYPE svg PUBLIC "-//W3C//DTD SVG 1.1//EN" "http://www.w3.org/Graphics/SVG/1.1/DTD/svg11.dtd">
<svg version="1.1" id="Capa_1" xmlns="http://www.w3.org/2000/svg" xmlns:xlink="http://www.w3.org/1999/xlink" x="0px" y="0px"
	 width="128px" height="128px" viewBox="0 0 128 128" enable-background="new 0 0 128 128" xml:space="preserve">
<circle fill="#FFFFFF" cx="64" cy="39.875" r="33.375"/>
<g>
	<path fill="#DF5900" d="M63.836,0.366c-22.191,0-40.182,17.991-40.182,40.182c0,32.096,40.182,87.691,40.182,87.691
		s40.184-53.574,40.184-87.691C104.02,18.356,86.028,0.366,63.836,0.366z M63.836,71.309c-16.987,0-30.76-13.772-30.76-30.761
		c0-16.987,13.773-30.761,30.76-30.761c16.986,0,30.76,13.774,30.76,30.761C94.596,57.537,80.822,71.309,63.836,71.309z"/>
	<path opacity="0.6" fill="#FF853F" d="M64.07,0.366c-0.102,0-0.07,0.005-0.07,0.009v9.42c0-0.001-0.032-0.008,0.07-0.008
		c16.987,0,30.644,13.774,30.644,30.761c0,16.989-13.597,30.761-30.585,30.761C64.026,71.309,64,71.301,64,71.3v56.512
		c0,0.278,0.07,0.428,0.07,0.428s40.184-53.574,40.184-87.691C104.254,18.356,86.262,0.366,64.07,0.366z"/>
</g>
<g>
	<circle fill="#303030" cx="48.418" cy="53.757" r="3.698"/>
	<circle fill="#303030" cx="63.458" cy="29.383" r="9.171"/>
	<circle fill="#303030" cx="64.833" cy="48.958" r="6.055"/>
	<circle fill="#303030" cx="80.088" cy="40.496" r="7.72"/>
	<circle fill="#303030" cx="46.396" cy="38.554" r="3.87"/>
	<circle fill="#303030" cx="53.44" cy="44.884" r="2.511"/>
</g>
</svg>
