<?xml version="1.0" encoding="utf-8"?>
<!-- Generator: Adobe Illustrator 16.0.0, SVG Export Plug-In . SVG Version: 6.00 Build 0)  -->
<!DOCTYPE svg PUBLIC "-//W3C//DTD SVG 1.1//EN" "http://www.w3.org/Graphics/SVG/1.1/DTD/svg11.dtd">
<svg version="1.1" id="Capa_1" xmlns="http://www.w3.org/2000/svg" xmlns:xlink="http://www.w3.org/1999/xlink" x="0px" y="0px"
	 width="128px" height="128px" viewBox="0 0 128 128" enable-background="new 0 0 128 128" xml:space="preserve">
<circle fill="#FFFFFF" cx="64" cy="39.875" r="33.375"/>
<g>
	<path fill="#DF5900" d="M63.836,0.366c-22.191,0-40.182,17.991-40.182,40.182c0,32.096,40.182,87.691,40.182,87.691
		s40.184-53.574,40.184-87.691C104.02,18.356,86.028,0.366,63.836,0.366z M63.836,71.309c-16.987,0-30.76-13.772-30.76-30.761
		c0-16.987,13.773-30.761,30.76-30.761c16.986,0,30.76,13.774,30.76,30.761C94.596,57.537,80.822,71.309,63.836,71.309z"/>
	<path opacity="0.6" fill="#FF853F" d="M64.07,0.366c-0.102,0-0.07,0.005-0.07,0.009v9.42c0-0.001-0.032-0.008,0.07-0.008
		c16.987,0,30.644,13.774,30.644,30.761c0,16.989-13.597,30.761-30.585,30.761C64.026,71.309,64,71.301,64,71.3v56.512
		c0,0.278,0.07,0.428,0.07,0.428s40.184-53.574,40.184-87.691C104.254,18.356,86.262,0.366,64.07,0.366z"/>
</g>
<g>
	<path fill="#303030" d="M81.183,34.37c-1.676-3.097-3.686-5.43-4.472-6.29c-2.291-2.504-2.629-8.613-2.565-10.755
		c0.029-0.985-0.617-1.812-1.446-1.849c-0.827-0.037-1.527,0.733-1.558,1.719c-0.013,0.381-0.247,9.379,3.534,13.513
		c2.186,2.39,6.218,8.018,5.834,12.213c-0.144,1.571-0.926,2.826-2.39,3.838c-2.128,1.471-3.844,1.278-6.015,1.034
		c-0.233-0.026-0.469-0.053-0.71-0.078c0.192-0.277,0.377-0.553,0.558-0.82c0.475-0.705,0.923-1.371,1.354-1.897
		c0.526-0.644,0.908-0.841,1.075-0.814c0.117,0.019,0.207,0.282,0.249,0.255c0.013-0.008-0.011-0.022-0.011-0.022
		s1.592-0.461,1.752-1.007c0.04-0.138-0.557-1.292-1.676-1.507c-0.902-0.173-1.839,0.327-2.786,1.485
		c-0.495,0.607-0.971,1.314-1.476,2.064c-0.496,0.736-0.997,1.479-1.531,2.158c-1.3,0.052-2.72,0.316-4.302,1.039
		c-1.582-0.723-3-0.986-4.3-1.039c-0.534-0.678-1.035-1.422-1.53-2.158c-0.504-0.75-0.981-1.457-1.477-2.064
		c-0.947-1.158-1.884-1.658-2.785-1.485c-1.121,0.215-1.717,1.369-1.677,1.507c0.152,0.519,1.595,0.96,1.738,1.003
		c0.017-0.063,0.153-0.213,0.253-0.229c0.166-0.026,0.548,0.17,1.075,0.814c0.431,0.527,0.879,1.193,1.353,1.897
		c0.181,0.268,0.366,0.543,0.557,0.82c-0.24,0.025-0.476,0.052-0.709,0.078c-2.172,0.244-3.887,0.437-6.015-1.034
		c-1.464-1.012-2.246-2.268-2.389-3.838c-0.385-4.195,3.648-9.823,5.833-12.213c3.782-4.134,3.546-13.132,3.534-13.513
		c-0.03-0.985-0.727-1.754-1.556-1.718c-0.829,0.035-1.477,0.863-1.448,1.848c0.063,2.142-0.275,8.25-2.565,10.755
		c-0.786,0.859-2.796,3.193-4.472,6.29c-1.778,3.287-2.557,6.294-2.315,8.938c0.173,1.883,0.983,4.546,3.866,6.539
		c2.962,2.048,5.427,1.771,7.81,1.503c1.16-0.131,2.284-0.256,3.488-0.118c1.021,0.801,2.203,1.356,3.616,1.428
		c0.033,0.004,0.068,0.007,0.102,0.007c0.005,0,0.008,0,0.012,0c0.005,0,0.009,0,0.013,0c0.035,0,0.068-0.002,0.102-0.007
		c1.414-0.072,2.597-0.627,3.618-1.428c1.205-0.139,2.329-0.013,3.489,0.117c2.383,0.268,4.848,0.545,7.81-1.503
		c2.883-1.993,3.693-4.656,3.866-6.539C83.74,40.664,82.961,37.657,81.183,34.37z"/>
	<path fill="#303030" d="M54.574,44.439c0.012,0.008,0.01-0.022,0.01-0.022s-0.005-0.002-0.013-0.004
		C54.568,44.425,54.567,44.436,54.574,44.439z"/>
	<path fill="#303030" d="M58.498,60.72l-0.735-6.14l-3.046,4.711c-0.453,0.385-0.8,0.954-0.953,1.644
		c-0.347,1.571,0.443,3.18,1.766,3.592s2.676-0.526,3.023-2.097c0.044-0.199,0.07-0.399,0.079-0.597l0,0v-0.001
		C58.648,61.448,58.601,61.072,58.498,60.72z"/>
	<path fill="#303030" d="M67.031,65.386c-0.063-0.377-0.187-0.729-0.358-1.039l-1.975-5.742l-1.985,5.453
		c-0.36,0.505-0.58,1.157-0.586,1.871c-0.015,1.625,1.082,2.956,2.449,2.971c1.368,0.017,2.489-1.286,2.502-2.911
		C67.08,65.782,67.064,65.581,67.031,65.386L67.031,65.386z"/>
	<path fill="#303030" d="M74.488,59.291l-3.045-4.711l-0.735,6.14c-0.104,0.352-0.151,0.728-0.135,1.112v0.001
		c0.01,0.198,0.035,0.397,0.08,0.597c0.347,1.571,1.7,2.51,3.022,2.097s2.112-2.021,1.766-3.592
		C75.289,60.245,74.941,59.676,74.488,59.291z"/>
</g>
</svg>
