<?xml version="1.0" encoding="utf-8"?>
<!-- Generator: Adobe Illustrator 16.0.0, SVG Export Plug-In . SVG Version: 6.00 Build 0)  -->
<!DOCTYPE svg PUBLIC "-//W3C//DTD SVG 1.1//EN" "http://www.w3.org/Graphics/SVG/1.1/DTD/svg11.dtd">
<svg version="1.1" id="Capa_1" xmlns="http://www.w3.org/2000/svg" xmlns:xlink="http://www.w3.org/1999/xlink" x="0px" y="0px"
	 width="1000px" height="1000px" viewBox="0 0 1000 1000" enable-background="new 0 0 1000 1000" xml:space="preserve">
<g>
	<path d="M407.292,446.264c1.077,4.021,4.709,6.664,8.676,6.664c0.766,0,1.55-0.099,2.328-0.304
		c4.793-1.287,7.642-6.213,6.355-11.003l-6.313-23.584l23.583,6.312c4.792,1.288,9.718-1.562,11.006-6.354
		c1.287-4.791-1.562-9.723-6.355-11.003l-38.619-10.345c-3.101-0.83-6.407,0.058-8.677,2.323c-2.269,2.277-3.159,5.583-2.328,8.683
		L407.292,446.264z M407.292,446.264"/>
	<path d="M593.398,396.646l-38.619,10.345c-4.791,1.28-7.635,6.206-6.354,11.003c1.287,4.792,6.219,7.636,11.004,6.354l23.584-6.317
		l-6.312,23.583c-1.287,4.797,1.562,9.724,6.354,11.01c0.779,0.206,1.562,0.304,2.328,0.304c3.973,0,7.602-2.644,8.678-6.664
		l10.344-38.613c0.83-3.1-0.053-6.412-2.322-8.683C599.805,396.698,596.5,395.816,593.398,396.646L593.398,396.646z
		 M593.398,396.646"/>
	<path d="M441.921,575.242l-23.583,6.318l6.313-23.584c1.286-4.797-1.562-9.725-6.355-11.006c-4.797-1.287-9.724,1.562-11.004,6.355
		l-10.343,38.613c-0.832,3.1,0.052,6.412,2.321,8.682c1.709,1.709,4.002,2.633,6.355,2.633c0.777,0,1.556-0.1,2.328-0.305
		l38.613-10.344c4.793-1.287,7.642-6.213,6.355-11.004C451.639,576.803,446.707,573.961,441.921,575.242L441.921,575.242z
		 M441.921,575.242"/>
	<path d="M594.061,553.326c-1.287-4.799-6.219-7.637-11.006-6.355c-4.797,1.281-7.641,6.209-6.354,11.006l6.312,23.584
		l-23.584-6.318c-4.797-1.287-9.717,1.561-11.004,6.354c-1.287,4.797,1.562,9.723,6.354,11.01l38.619,10.338
		c0.768,0.211,1.545,0.311,2.324,0.311c2.352,0,4.645-0.924,6.354-2.633c2.27-2.27,3.158-5.582,2.328-8.682L594.061,553.326z
		 M594.061,553.326"/>
	<path d="M716.666,492.215l-28.762-16.604c-5.4-41.557-24.883-80.722-54.861-110.278c-29.365-28.949-67.797-47.683-108.494-52.965
		l-16.762-29.031c-1.609-2.778-4.574-4.493-7.788-4.493c-3.212,0-6.172,1.715-7.781,4.493l-16.761,29.031
		c-0.054,0.006-0.106,0.006-0.153,0.012c-85.044,11.074-152.145,78.193-163.208,163.231l-28.756,16.604
		c-2.778,1.608-4.493,4.576-4.493,7.781c0,3.212,1.715,6.179,4.493,7.787l28.685,16.564c5.178,40.645,23.707,78.994,52.498,108.43
		c29.755,30.416,69.265,50.109,111.285,55.469l16.41,28.416c1.604,2.779,4.569,4.494,7.781,4.494c3.213,0,6.178-1.715,7.782-4.494
		l16.416-28.422c40.855-5.23,79.354-23.941,108.834-53.006c30.166-29.74,49.631-69.061,54.943-110.887l28.686-16.564
		c2.779-1.607,4.492-4.574,4.492-7.781C721.152,496.792,719.445,493.824,716.666,492.215L716.666,492.215z M636.74,533.182
		c-4.301,2.48-5.773,7.975-3.287,12.275c1.66,2.883,4.68,4.492,7.787,4.492c1.525,0,3.07-0.387,4.486-1.205l22.051-12.736
		c-6.949,32.588-23.438,62.836-47.365,86.424c-23.305,22.977-52.82,38.803-84.547,45.594l12.883-22.301
		c2.48-4.301,1.012-9.801-3.289-12.281s-9.793-1.006-12.273,3.287L500,694.195l-33.178-57.465c-2.48-4.293-7.974-5.768-12.274-3.287
		s-5.77,7.98-3.29,12.281l12.884,22.312c-32.757-7.014-63.151-23.688-86.77-47.834c-22.741-23.25-38.416-52.643-45.148-84.195
		l22.055,12.736c1.417,0.818,2.961,1.205,4.487,1.205c3.103,0,6.12-1.609,7.789-4.492c2.48-4.301,1.011-9.795-3.29-12.275
		l-57.458-33.185l57.458-33.178c4.3-2.487,5.77-7.98,3.29-12.28c-2.482-4.296-7.976-5.77-12.276-3.29l-21.945,12.672
		c14.146-65.684,65.738-117.239,131.446-131.333l-12.528,21.688c-2.48,4.3-1.005,9.794,3.29,12.276
		c4.299,2.486,9.793,1.011,12.28-3.29L500,305.804l33.18,57.458c1.666,2.885,4.686,4.493,7.793,4.493
		c1.525,0,3.07-0.386,4.486-1.204c4.295-2.482,5.77-7.976,3.289-12.276l-12.51-21.665c31.576,6.846,60.998,22.666,84.186,45.524
		c23.734,23.408,40.199,53.45,47.225,85.781l-21.922-12.661c-4.307-2.486-9.799-1.012-12.279,3.29
		c-2.48,4.293-1.014,9.794,3.287,12.274l57.459,33.184L636.74,533.182z M636.74,533.182"/>
	<path d="M549.402,493.122l-43.418-43.423c-3.516-3.505-9.202-3.505-12.712,0l-43.423,43.423c-3.504,3.511-3.504,9.205,0,12.708
		l43.423,43.424c1.755,1.754,4.055,2.633,6.354,2.633c2.3,0,4.605-0.879,6.359-2.633l43.418-43.424
		C552.912,502.326,552.912,496.632,549.402,493.122L549.402,493.122z M499.625,530.191l-30.711-30.715l30.711-30.709l30.716,30.709
		L499.625,530.191z M499.625,530.191"/>
</g>
</svg>
