<?xml version="1.0" encoding="utf-8"?>
<!-- Generator: Adobe Illustrator 16.0.0, SVG Export Plug-In . SVG Version: 6.00 Build 0)  -->
<!DOCTYPE svg PUBLIC "-//W3C//DTD SVG 1.1//EN" "http://www.w3.org/Graphics/SVG/1.1/DTD/svg11.dtd">
<svg version="1.1" id="Capa_1" xmlns="http://www.w3.org/2000/svg" xmlns:xlink="http://www.w3.org/1999/xlink" x="0px" y="0px"
	 width="1000px" height="1000px" viewBox="0 0 1000 1000" enable-background="new 0 0 1000 1000" xml:space="preserve">
<g>
	<g>
		<defs>
			<rect id="SVGID_1_" x="125" y="190" width="748.8" height="621"/>
		</defs>
		<clipPath id="SVGID_2_">
			<use xlink:href="#SVGID_1_"  overflow="visible"/>
		</clipPath>
		<path clip-path="url(#SVGID_2_)" d="M862.466,622.32c-14.719-74.961-47.277-146.242-89.039-209.84
			c-19.039-28.961-41.922-56-67.039-79.922c-19.52-18.558-47.199-44.797-76.16-44.238h-1.039c-46.883,2-62.641,57.121-70.16,94.879
			c-4.562,22.722-7.363,45.762-8.641,68.961c-13.68-15.52-20.641-37.68-20.641-66.082V290h-61.281v96.078
			c0,28.48-6.961,50.64-20.641,66.082c-1.277-23.199-4.16-46.239-8.636-68.961c-7.524-37.758-23.282-92.879-70.161-94.879h-1.043
			c-29.039-0.641-56.718,25.68-76.16,44.238c-25.117,23.84-48,50.961-67.039,79.922c-41.918,63.598-74.398,134.879-89.121,209.84
			c-10.316,52.641-32.957,183.52,50,188c48.16,2.559,91.281-38.48,131.363-59.199c32-16.562,65.04-34.641,87.52-63.68
			c25.68-33.203,32.16-77.203,37.84-117.602c2.078-14.879,3.68-29.918,4.801-44.961c8.476-3.68,18-8.879,27.519-16.16
			c8-6.16,16.559-14.161,24.399-24.559c7.839,10.398,16.32,18.48,24.398,24.559c9.523,7.281,19.043,12.48,27.523,16.16
			c1.039,15.043,2.637,30.082,4.797,44.961c5.68,40.398,12.242,84.398,37.84,117.602c22.402,29.039,55.523,47.199,87.523,63.68
			c40.078,20.719,83.277,61.758,131.359,59.199C895.427,805.84,872.786,674.961,862.466,622.32L862.466,622.32z M862.466,622.32"/>
	</g>
	<path d="M529.747,257.199V214c0-13.282-10.719-24-24-24h-13.281c-13.277,0-24,10.718-24,24v43.199H529.747z M529.747,257.199"/>
</g>
</svg>
