<?xml version="1.0" encoding="utf-8"?>
<!-- Generator: Adobe Illustrator 16.0.0, SVG Export Plug-In . SVG Version: 6.00 Build 0)  -->
<!DOCTYPE svg PUBLIC "-//W3C//DTD SVG 1.1//EN" "http://www.w3.org/Graphics/SVG/1.1/DTD/svg11.dtd">
<svg version="1.1" id="Capa_1" xmlns="http://www.w3.org/2000/svg" xmlns:xlink="http://www.w3.org/1999/xlink" x="0px" y="0px"
	 width="1000px" height="1000px" viewBox="0 0 1000 1000" enable-background="new 0 0 1000 1000" xml:space="preserve">
<g>
	<path d="M570.828,248.673c-53.382,0-101.611,22.007-136.146,57.433c0,0-45.862,43.22-56.529,91.887s-28,137.333-28,137.333h41.333
		v38.667l0.004,0.672h56.991c8.284,0,15,6.717,15,15v10.668c0,8.283-6.716,15-15,15h-56.725v40.057c0,0,6.25,19.938,21.188,19.938
		s63.501,0,63.501,0v51c0,0,4.875,25,30.246,25c25.377,0,142.629,0,142.629,0s26.25-4.25,26.25-25.5s0-124.25,0-124.25v-4.1
		c51.443-34.025,85.383-92.386,85.383-158.68C760.954,333.794,675.833,248.673,570.828,248.673z M447.626,465.994
		c-12.887,0-23.333-10.447-23.333-23.333c0-12.886,10.447-23.333,23.333-23.333s23.333,10.447,23.333,23.333
		C470.96,455.547,460.513,465.994,447.626,465.994z"/>
	<circle cx="308.747" cy="577.325" r="13.333"/>
	<circle cx="308.747" cy="618.35" r="13.333"/>
	<circle cx="255.713" cy="598.335" r="16.667"/>
	<circle cx="346.771" cy="598.335" r="7.342"/>
	<circle cx="255.713" cy="543.303" r="16.668"/>
	<circle cx="255.713" cy="653.368" r="16.667"/>
</g>
</svg>
