<?xml version="1.0" encoding="utf-8"?>
<!-- Generator: Adobe Illustrator 16.0.0, SVG Export Plug-In . SVG Version: 6.00 Build 0)  -->
<!DOCTYPE svg PUBLIC "-//W3C//DTD SVG 1.1//EN" "http://www.w3.org/Graphics/SVG/1.1/DTD/svg11.dtd">
<svg version="1.1" id="Capa_1" xmlns="http://www.w3.org/2000/svg" xmlns:xlink="http://www.w3.org/1999/xlink" x="0px" y="0px"
	 width="1000px" height="1000px" viewBox="0 0 1000 1000" enable-background="new 0 0 1000 1000" xml:space="preserve">
<g>
	<g>
		<defs>
			<rect id="SVGID_1_" x="247.92" y="335.195" width="504.08" height="330.609"/>
		</defs>
		<clipPath id="SVGID_2_">
			<use xlink:href="#SVGID_1_"  overflow="visible"/>
		</clipPath>
		<path clip-path="url(#SVGID_2_)" d="M734.109,481.945c-4.33-5.982-107.949-146.75-240.901-146.75
			c-132.942,0-236.552,140.768-240.949,146.75c-5.782,7.995-5.782,18.858,0,26.835c4.397,6.078,108.007,146.769,240.949,146.769
			c133.028,0,236.571-140.767,240.901-146.769C739.959,500.804,739.959,489.94,734.109,481.945L734.109,481.945z M454.996,465.479
			c-8.261,11.689-10.17,26.893-5.697,45.276c2.973,12.307-4.549,24.613-16.864,27.576c-1.747,0.456-3.552,0.607-5.385,0.607
			c-10.246,0-19.6-6.989-22.191-17.473c-10.17-41.867,2.896-69.443,15.583-85.624c17.405-22.097,44.354-33.492,61.001-33.492h0.086
			c12.601,0,22.856,9.8,22.78,22.4c0,12.469-10.027,22.411-22.496,22.562C477.787,447.779,463.961,452.936,454.996,465.479
			L454.996,465.479z M540.773,573.429c-15.878,0-28.716-12.763-28.716-28.64s12.838-28.716,28.716-28.716
			c15.801,0,28.639,12.839,28.639,28.716S556.574,573.429,540.773,573.429L540.773,573.429z M300.043,495.41
			c20.358-24.31,67.98-75.056,126.855-100.058c-34.033,21.347-56.748,59.178-56.748,102.337c0,35.78,15.649,67.915,40.405,89.945
			C359.297,561.122,318.493,517.365,300.043,495.41L300.043,495.41z M563.715,593.636c28.943-22.03,47.632-56.823,47.632-95.946
			c0-47.403-27.349-88.436-67.079-108.12c65.863,21.964,120.028,79.547,142.21,105.841
			C666.574,519.112,620.767,568.111,563.715,593.636L563.715,593.636z M563.715,593.636"/>
	</g>
</g>
</svg>
