<?xml version="1.0" encoding="utf-8"?>
<!-- Generator: Adobe Illustrator 16.0.0, SVG Export Plug-In . SVG Version: 6.00 Build 0)  -->
<!DOCTYPE svg PUBLIC "-//W3C//DTD SVG 1.1//EN" "http://www.w3.org/Graphics/SVG/1.1/DTD/svg11.dtd">
<svg version="1.1" id="Capa_1" xmlns="http://www.w3.org/2000/svg" xmlns:xlink="http://www.w3.org/1999/xlink" x="0px" y="0px"
	 width="1000px" height="1000px" viewBox="0 0 1000 1000" enable-background="new 0 0 1000 1000" xml:space="preserve">
<g>
	<path fill="#AFAFAF" d="M728.672,294.766H270.19v43.146l52.642,25.728v31.453c0,13.924,11.281,25.206,25.192,25.206h68.938
		c11.805,0,26.552-8.215,32.771-18.249c0,0,14.674-23.711,24.449-39.531c5.296-8.578,14.671-13.776,24.754-13.737
		c0.164,0,0.326,0,0.488,0.012c10.01,0.025,19.284,5.211,24.545,13.725c9.748,15.77,24.445,39.531,24.445,39.531
		c6.233,10.034,20.98,18.249,32.798,18.249h68.912c13.924,0,25.206-11.282,25.206-25.206V363.64l53.329-26.066v-42.808H728.672z
		 M728.672,294.766"/>
	<path fill="#D0D7DC" d="M276.384,416.995l84.097,117.728l8.822-32.336L259.617,359.864
		C259.617,359.864,264.579,389.432,276.384,416.995L276.384,416.995z M276.384,416.995"/>
	<path fill="#D0D7DC" d="M723.448,416.995l-84.095,117.728l-8.826-32.336l109.688-142.523
		C740.215,359.864,735.254,389.432,723.448,416.995L723.448,416.995z M723.448,416.995"/>
	<path fill="#E4EBF0" d="M650.273,487.678c0-13.502-8.065-25.68-20.494-30.942l-91.388-38.708
		c-25.131-10.646-53.503-10.646-78.635,0l-91.389,38.708c-12.413,5.262-20.494,17.44-20.494,30.942v58.125
		c45.552,56.337,102.544,96.152,151.898,96.152c48.854,0,105.2-39.019,150.501-94.441V487.678z M650.273,487.678"/>
</g>
</svg>
