<?xml version="1.0" encoding="utf-8"?>
<!-- Generator: Adobe Illustrator 16.0.0, SVG Export Plug-In . SVG Version: 6.00 Build 0)  -->
<!DOCTYPE svg PUBLIC "-//W3C//DTD SVG 1.1//EN" "http://www.w3.org/Graphics/SVG/1.1/DTD/svg11.dtd">
<svg version="1.1" id="Capa_1" xmlns="http://www.w3.org/2000/svg" xmlns:xlink="http://www.w3.org/1999/xlink" x="0px" y="0px"
	 width="1000px" height="1000px" viewBox="0 0 1000 1000" enable-background="new 0 0 1000 1000" xml:space="preserve">
<g>
	<circle fill="#C6ECF7" cx="572.37" cy="410.459" r="252.809"/>
	<circle fill="#7DD1EF" cx="572.37" cy="410.459" r="234.522"/>
	<circle fill="#29ABE2" cx="572.37" cy="410.459" r="215.73"/>
	<g>
		<defs>
			<circle id="SVGID_1_" cx="572.37" cy="410.459" r="252.809"/>
		</defs>
		<clipPath id="SVGID_2_">
			<use xlink:href="#SVGID_1_"  overflow="visible"/>
		</clipPath>
		<g clip-path="url(#SVGID_2_)">
			
				<linearGradient id="SVGID_3_" gradientUnits="userSpaceOnUse" x1="1011.6143" y1="691.3906" x2="1014.9545" y2="975.0315" gradientTransform="matrix(0.7377 -0.7377 0.3507 0.3507 -343.7803 910.2639)">
				<stop  offset="0" style="stop-color:#3386DF"/>
				<stop  offset="1" style="stop-color:#FFFFFF;stop-opacity:0"/>
			</linearGradient>
			<polygon opacity="0.5" fill="url(#SVGID_3_)" points="861.62,403.672 627.843,645.984 527.957,504.099 761.731,261.784 			"/>
			
				<linearGradient id="SVGID_4_" gradientUnits="userSpaceOnUse" x1="862.1855" y1="348.9126" x2="865.4817" y2="628.8075" gradientTransform="matrix(0.7377 -0.7377 0.3507 0.3507 -343.7803 910.2639)">
				<stop  offset="0" style="stop-color:#3386DF"/>
				<stop  offset="1" style="stop-color:#FFFFFF;stop-opacity:0"/>
			</linearGradient>
			<polygon opacity="0.5" fill="url(#SVGID_4_)" points="520.62,508.672 506.843,519.984 406.957,378.099 420.731,366.784 			"/>
			<path fill="#FFFFFF" d="M750.693,255.677c-3.698,0-7.023,1.621-9.378,4.205l-0.063-0.066L535.043,473.562L428.387,363.015
				c-2.376-2.76-5.823-4.508-9.672-4.508c-7.164,0-12.972,6.02-12.972,13.446c0,4.2,1.86,7.948,4.771,10.414l124.528,129.076
				l224.116-232.307c2.717-2.453,4.441-6.055,4.441-10.082C763.601,261.666,757.82,255.677,750.693,255.677z"/>
		</g>
	</g>
	<g>
		<path fill="#C1C1C1" d="M464.94,466.185c22.446,0,40.711,18.431,40.711,41.082c0,2.333-0.2,4.629-0.61,7.017l-1.645,9.564
			l9.586,1.528c16.217,2.578,31.091,10.943,41.879,23.556c10.916,12.755,16.93,29.074,16.93,45.949
			c0,38.812-31.304,70.391-69.784,70.391H256.412c-38.479,0-69.779-31.578-69.779-70.391c0-33.321,23.461-62.327,55.784-68.97
			l8.198-1.685l-0.565-8.354c-0.144-2.155-0.218-4.27-0.218-6.282c0-26.986,7.98-51.582,22.473-69.251
			c16.066-19.586,39.691-29.938,68.32-29.938c51.41,0,68.611,29.365,83.033,62.081l5.208,11.818l9.804-8.408
			C445.971,469.633,455.301,466.185,464.94,466.185z"/>
		<path fill="#DDDDDD" d="M458.973,466.187c22.447,0,40.712,18.431,40.712,41.082c0,2.334-0.2,4.628-0.611,7.016l-1.644,9.564
			l9.584,1.529c16.218,2.578,31.092,10.943,41.883,23.556c10.916,12.756,16.928,29.074,16.928,45.948
			c0,38.812-31.307,70.391-69.785,70.391H250.444c-38.478,0-69.778-31.578-69.778-70.391c0-33.321,23.46-62.327,55.783-68.97
			l8.199-1.685l-0.566-8.353c-0.144-2.156-0.218-4.271-0.218-6.282c0-26.987,7.981-51.584,22.474-69.252
			c16.066-19.586,39.69-29.938,68.318-29.938c51.412,0,68.613,29.365,83.034,62.08l5.208,11.817l9.804-8.405
			C440.003,469.634,449.334,466.187,458.973,466.187z"/>
		
			<radialGradient id="SVGID_5_" cx="325.6606" cy="611.8926" r="219.6854" fx="187.5244" fy="615.1592" gradientTransform="matrix(0.6095 -0.7928 0.9807 0.7541 -472.9397 408.6469)" gradientUnits="userSpaceOnUse">
			<stop  offset="0.5824" style="stop-color:#FFFFFF"/>
			<stop  offset="1" style="stop-color:#E6E6E6"/>
		</radialGradient>
		<path fill="url(#SVGID_5_)" d="M453.128,467.265c22.447,0,40.712,18.431,40.712,41.082c0,2.332-0.201,4.627-0.611,7.015
			l-1.645,9.565l9.586,1.528c16.217,2.578,31.092,10.943,41.885,23.556c10.914,12.755,16.928,29.074,16.928,45.948
			c0,38.813-31.31,70.391-69.787,70.391H244.6c-38.478,0-69.778-31.577-69.778-70.391c0-33.32,23.46-62.327,55.784-68.97
			l8.198-1.684l-0.565-8.353c-0.145-2.157-0.219-4.27-0.219-6.282c0-26.987,7.98-51.582,22.474-69.251
			c16.066-19.586,39.69-29.938,68.319-29.938c51.411,0,68.611,29.365,83.033,62.081l5.209,11.818l9.803-8.408
			C434.158,470.713,443.489,467.265,453.128,467.265z"/>
	</g>
</g>
<g>
	<path fill="#FFFFFF" d="M194.111,750.806c-0.539-0.211-0.913-0.585-1.124-1.124c-0.234-0.538-0.234-1.077,0-1.616l4.883-11.768
		v-0.035l14.227-34.32c0.047-0.117,0.105-0.246,0.176-0.387l0.141-0.141c0.07-0.093,0.117-0.151,0.141-0.176
		c0.023-0.022,0.082-0.07,0.176-0.141c0.117-0.093,0.163-0.128,0.141-0.104c0.233-0.164,0.479-0.27,0.737-0.316h0.176
		c0.141-0.023,0.223-0.035,0.246-0.035c0.022,0,0.093,0.012,0.211,0.035c0.141,0,0.198,0,0.176,0
		c0.28,0.047,0.538,0.152,0.772,0.316l0.141,0.104c0.093,0.095,0.152,0.141,0.176,0.141c0.022,0.024,0.07,0.083,0.141,0.176
		c0.093,0.118,0.14,0.164,0.14,0.141c0.07,0.141,0.129,0.27,0.176,0.387l14.228,34.32v0.035l4.883,11.768
		c0.233,0.539,0.233,1.078,0,1.616c-0.211,0.539-0.586,0.913-1.124,1.124c-0.258,0.117-0.527,0.176-0.809,0.176
		c-0.937,0-1.58-0.433-1.932-1.3l-4.356-10.468h-25.644l-4.355,10.468c-0.352,0.867-0.996,1.3-1.933,1.3c-0.28,0-0.421,0-0.421,0
		S194.369,750.923,194.111,750.806z M225.13,734.998l-11.101-26.768l-11.101,26.768H225.13z"/>
	<path fill="#FFFFFF" d="M260.876,748.874c0,0.585-0.211,1.077-0.632,1.476c-0.398,0.421-0.891,0.632-1.476,0.632
		c-0.586,0-1.077-0.211-1.476-0.632c-0.422-0.398-0.632-0.891-0.632-1.476v-46.019c0-0.585,0.21-1.077,0.632-1.476
		c0.398-0.421,0.89-0.632,1.476-0.632c0.585,0,1.077,0.211,1.476,0.632c0.421,0.398,0.632,0.891,0.632,1.476V748.874z"/>
	<path fill="#FFFFFF" d="M304.457,700.678c4.051,0,7.518,1.323,10.397,3.97c2.857,2.646,4.286,5.843,4.286,9.59
		c0,3.325-1.172,6.253-3.513,8.782c-2.296,2.506-5.188,4.028-8.677,4.566l10.011,20.409c0.258,0.516,0.293,1.043,0.105,1.581
		c-0.188,0.539-0.539,0.938-1.054,1.194c-0.281,0.141-0.585,0.211-0.913,0.211c-0.867,0-1.487-0.387-1.862-1.159l-10.854-22.025
		h-11.732v20.761c0,0.562-0.211,1.054-0.633,1.476c-0.398,0.398-0.89,0.597-1.475,0.597c-0.562,0-1.055-0.198-1.476-0.597
		c-0.398-0.422-0.598-0.913-0.598-1.476V702.75c0-0.585,0.199-1.077,0.598-1.476c0.421-0.397,0.913-0.597,1.476-0.597H304.457z
		 M314.995,714.237c0-2.6-1.03-4.812-3.091-6.64c-2.062-1.85-4.544-2.775-7.447-2.775h-13.806v18.794h14.051
		c2.857-0.047,5.281-0.983,7.272-2.811C313.988,718.979,314.995,716.79,314.995,714.237z"/>
	<path fill="#B4FFC9" d="M429.085,750.981c-6.908,0-12.821-2.447-17.739-7.342c-4.896-4.918-7.342-10.831-7.342-17.74
		c0-6.932,2.446-12.845,7.342-17.739c4.918-4.918,10.831-7.377,17.739-7.377c5.691,0,10.796,1.733,15.316,5.199
		c0.89,0.702,1.417,1.615,1.581,2.739c0.141,1.148-0.141,2.179-0.844,3.092c-0.702,0.913-1.615,1.44-2.739,1.581
		c-1.148,0.14-2.179-0.129-3.092-0.809c-2.998-2.318-6.405-3.478-10.223-3.478c-4.613,0-8.56,1.64-11.838,4.918
		c-3.279,3.279-4.918,7.236-4.918,11.873c0,4.614,1.639,8.561,4.918,11.839c3.278,3.278,7.225,4.918,11.838,4.918
		c4.356,0,8.127-1.452,11.312-4.356c0.843-0.772,1.838-1.136,2.986-1.089c1.146,0.048,2.107,0.504,2.88,1.37
		c0.773,0.843,1.136,1.839,1.09,2.986c-0.048,1.147-0.492,2.107-1.335,2.88C441.216,748.804,435.572,750.981,429.085,750.981z"/>
	<path fill="#B4FFC9" d="M503.895,750.981c-1.146,0-2.131-0.409-2.951-1.229c-0.818-0.819-1.229-1.803-1.229-2.951v-16.826h-21.64
		v16.826c0,1.148-0.398,2.132-1.194,2.951c-0.819,0.82-1.804,1.229-2.95,1.229c-1.148,0-2.132-0.409-2.951-1.229
		c-0.82-0.819-1.229-1.803-1.229-2.951v-41.979c0-1.146,0.409-2.13,1.229-2.95c0.819-0.819,1.803-1.229,2.951-1.229
		c1.146,0,2.131,0.41,2.95,1.229c0.796,0.82,1.194,1.804,1.194,2.95v16.827h21.64v-16.827c0-1.146,0.41-2.13,1.229-2.95
		c0.82-0.819,1.805-1.229,2.951-1.229c1.148,0,2.131,0.41,2.951,1.229c0.82,0.82,1.23,1.804,1.23,2.95v41.979
		c0,1.148-0.41,2.132-1.23,2.951C506.025,750.572,505.043,750.981,503.895,750.981z"/>
	<path fill="#B4FFC9" d="M563.811,742.656c1.146,0,2.119,0.41,2.915,1.229c0.82,0.819,1.229,1.804,1.229,2.95
		c0,1.148-0.409,2.12-1.229,2.916c-0.796,0.82-1.769,1.229-2.915,1.229h-25.434c-1.147,0-2.119-0.409-2.915-1.229
		c-0.82-0.796-1.229-1.768-1.229-2.916v-42.118c0-1.171,0.409-2.155,1.229-2.951c0.796-0.819,1.768-1.229,2.915-1.229h0.035
		l25.398,0.07c1.146,0,2.131,0.41,2.95,1.229c0.796,0.82,1.194,1.804,1.194,2.95c0,1.148-0.409,2.12-1.229,2.916
		c-0.796,0.82-1.769,1.229-2.915,1.229h-0.035l-21.218-0.07v12.752h15.316c1.146,0,2.13,0.398,2.95,1.194
		c0.819,0.82,1.229,1.804,1.229,2.95c0,1.148-0.41,2.132-1.229,2.951c-0.82,0.797-1.804,1.194-2.95,1.194h-15.316v12.752H563.811z"
		/>
	<path fill="#B4FFC9" d="M612.555,750.981c-6.909,0-12.822-2.447-17.74-7.342c-4.895-4.918-7.342-10.831-7.342-17.74
		c0-6.932,2.447-12.845,7.342-17.739c4.918-4.918,10.831-7.377,17.74-7.377c5.69,0,10.796,1.733,15.315,5.199
		c0.89,0.702,1.417,1.615,1.581,2.739c0.141,1.148-0.141,2.179-0.843,3.092c-0.703,0.913-1.616,1.44-2.74,1.581
		c-1.147,0.14-2.178-0.129-3.092-0.809c-2.998-2.318-6.405-3.478-10.222-3.478c-4.614,0-8.561,1.64-11.839,4.918
		c-3.279,3.279-4.918,7.236-4.918,11.873c0,4.614,1.639,8.561,4.918,11.839c3.278,3.278,7.225,4.918,11.839,4.918
		c4.355,0,8.126-1.452,11.311-4.356c0.844-0.772,1.839-1.136,2.986-1.089c1.147,0.048,2.107,0.504,2.881,1.37
		c0.772,0.843,1.136,1.839,1.089,2.986c-0.048,1.147-0.492,2.107-1.335,2.88C624.686,748.804,619.041,750.981,612.555,750.981z"/>
	<path fill="#B4FFC9" d="M657.328,750.665c-1.124,0-2.096-0.409-2.915-1.229c-0.797-0.796-1.194-1.756-1.194-2.88v-41.733
		c0-1.124,0.397-2.084,1.194-2.88c0.819-0.819,1.791-1.229,2.915-1.229c1.125,0,2.096,0.41,2.916,1.229
		c0.796,0.796,1.194,1.756,1.194,2.88V723.3l20.094-21.111c0.772-0.82,1.732-1.253,2.88-1.3c1.125-0.023,2.096,0.363,2.916,1.159
		c0.819,0.772,1.241,1.721,1.265,2.845c0.047,1.148-0.328,2.132-1.124,2.951l-16.861,17.74l17.528,18.442
		c0.773,0.843,1.147,1.826,1.125,2.95c-0.024,1.124-0.445,2.085-1.265,2.881c-0.797,0.75-1.745,1.124-2.846,1.124
		c-1.172,0-2.167-0.422-2.986-1.265l-17.248-18.161l-3.478,3.688v11.312c0,1.124-0.398,2.084-1.194,2.88
		C659.424,750.256,658.453,750.665,657.328,750.665z"/>
	<path fill="#B4FFC9" d="M740.956,742.656c1.146,0,2.119,0.41,2.915,1.229c0.82,0.819,1.229,1.804,1.229,2.95
		c0,1.148-0.409,2.12-1.229,2.916c-0.796,0.82-1.769,1.229-2.915,1.229h-25.434c-1.147,0-2.119-0.409-2.915-1.229
		c-0.82-0.796-1.229-1.768-1.229-2.916v-42.118c0-1.171,0.409-2.155,1.229-2.951c0.796-0.819,1.768-1.229,2.915-1.229h0.035
		l25.398,0.07c1.146,0,2.131,0.41,2.95,1.229c0.796,0.82,1.194,1.804,1.194,2.95c0,1.148-0.409,2.12-1.229,2.916
		c-0.796,0.82-1.769,1.229-2.915,1.229h-0.035l-21.218-0.07v12.752h15.316c1.146,0,2.13,0.398,2.95,1.194
		c0.819,0.82,1.229,1.804,1.229,2.95c0,1.148-0.41,2.132-1.229,2.951c-0.82,0.797-1.804,1.194-2.95,1.194h-15.316v12.752H740.956z"
		/>
	<path fill="#B4FFC9" d="M801.503,715.186c0,3.092-0.961,5.89-2.881,8.396c-1.85,2.482-4.285,4.251-7.307,5.305l7.975,16.159
		c0.491,1.007,0.55,2.05,0.176,3.126c-0.352,1.078-1.043,1.874-2.073,2.389c-0.585,0.281-1.194,0.422-1.826,0.422
		c-1.71,0-2.939-0.772-3.688-2.318l-9.31-18.864h-7.131v16.757c0,1.124-0.41,2.096-1.229,2.915
		c-0.796,0.797-1.769,1.194-2.915,1.194c-1.125,0-2.097-0.397-2.916-1.194c-0.797-0.819-1.194-1.791-1.194-2.915v-41.873
		c0-1.147,0.397-2.12,1.194-2.916c0.819-0.819,1.791-1.229,2.916-1.229h14.543c4.332,0,8.021,1.429,11.065,4.285
		C799.969,707.681,801.503,711.135,801.503,715.186z M786.116,721.544c1.968-0.07,3.654-0.714,5.059-1.933
		c1.382-1.24,2.073-2.716,2.073-4.426c0-1.779-0.727-3.29-2.179-4.531s-3.196-1.862-5.233-1.862h-10.398v12.752H786.116z"/>
</g>
</svg>
