<?xml version="1.0" encoding="utf-8"?>
<!-- Generator: Adobe Illustrator 16.0.0, SVG Export Plug-In . SVG Version: 6.00 Build 0)  -->
<!DOCTYPE svg PUBLIC "-//W3C//DTD SVG 1.1//EN" "http://www.w3.org/Graphics/SVG/1.1/DTD/svg11.dtd">
<svg version="1.1" id="Capa_1" xmlns="http://www.w3.org/2000/svg" xmlns:xlink="http://www.w3.org/1999/xlink" x="0px" y="0px"
	 width="1000px" height="1000px" viewBox="0 0 1000 1000" enable-background="new 0 0 1000 1000" xml:space="preserve">
<g>
	<path d="M500,585.643c70.8,0,128.429-70.451,128.429-156.991c0-86.558-57.629-157.009-128.429-157.009
		c-34.912,0-67.585,16.716-91.923,47.186c-23.545,29.468-36.497,68.482-36.497,109.823C371.58,515.191,429.131,585.643,500,585.643
		L500,585.643z M500,300.222c55.051,0,99.858,57.621,99.858,128.43c0,70.8-44.808,128.42-99.858,128.42
		c-55.12,0-99.928-57.621-99.928-128.42C400.072,357.843,444.88,300.222,500,300.222L500,300.222z M599.858,557.072
		c-7.875,0-14.216,6.41-14.216,14.285s6.341,14.285,14.216,14.285c55.12,0,99.928,44.807,99.928,99.857
		c0,7.875-6.411,14.287-14.285,14.287h-371.08c-7.796,0-14.198-6.412-14.198-14.287c0-55.051,44.79-99.857,99.85-99.857
		c7.883,0,14.285-6.41,14.285-14.285s-6.402-14.285-14.285-14.285c-70.809,0-128.429,57.629-128.429,128.428
		c0,23.623,19.232,42.857,42.777,42.857h371.08c23.623,0,42.855-19.234,42.855-42.857
		C728.356,614.701,670.728,557.072,599.858,557.072L599.858,557.072z M599.858,557.072"/>
</g>
</svg>
