<?xml version="1.0" encoding="utf-8"?>
<!-- Generator: Adobe Illustrator 16.0.0, SVG Export Plug-In . SVG Version: 6.00 Build 0)  -->
<!DOCTYPE svg PUBLIC "-//W3C//DTD SVG 1.1//EN" "http://www.w3.org/Graphics/SVG/1.1/DTD/svg11.dtd">
<svg version="1.1" id="Modo_de_aislamiento" xmlns="http://www.w3.org/2000/svg" xmlns:xlink="http://www.w3.org/1999/xlink"
	 x="0px" y="0px" width="1000px" height="1000px" viewBox="0 0 1000 1000" enable-background="new 0 0 1000 1000"
	 xml:space="preserve">
<path d="M327.961,548.48c3.918,13.438,9.359,26.398,16.238,38.559l-19.597,24.719c-6.403,8.082-5.68,19.602,1.519,26.883
	l33.758,33.758c7.281,7.281,18.801,7.922,26.883,1.52l24.558-19.438c12.641,7.277,26.078,12.957,40.078,16.957l3.68,31.602
	c1.203,10.238,9.844,17.922,20.082,17.922h47.762c10.238,0,18.879-7.684,20.078-17.922l3.52-30.48
	c15.039-3.918,29.441-9.758,42.961-17.359L613.238,674c8.082,6.398,19.602,5.68,26.883-1.52l33.758-33.762
	c7.281-7.281,7.922-18.801,1.52-26.879l-18.477-23.441c7.68-13.281,13.68-27.438,17.68-42.238l28.477-3.281
	C713.32,541.68,721,533.039,721,522.801V475.04c0-10.239-7.68-18.879-17.922-20.079L675,451.68
	c-3.84-14.64-9.602-28.64-16.961-41.762l17.281-21.839c6.398-8.079,5.68-19.598-1.52-26.879l-33.68-33.68
	c-7.281-7.281-18.801-7.922-26.883-1.52l-21.199,16.801c-13.758-8.082-28.48-14.242-43.918-18.402l-3.199-27.438
	c-1.203-10.242-9.844-17.921-20.082-17.921h-47.762c-10.238,0-18.879,7.679-20.078,17.921l-3.199,27.438
	c-15.84,4.242-30.961,10.641-45.039,19.039l-22-17.438c-8.082-6.402-19.602-5.679-26.883,1.52l-33.758,33.758
	c-7.281,7.281-7.922,18.801-1.519,26.883L343,411.438c-7.359,13.281-12.961,27.441-16.641,42.16l-29.437,3.363
	c-10.242,1.2-17.922,9.84-17.922,20.079v47.761c0,10.238,7.68,18.879,17.922,20.078L327.961,548.48z M501,419.278
	c43.52,0,78.961,35.441,78.961,78.961c0,43.519-35.441,78.96-78.961,78.96c-43.52,0-78.961-35.441-78.961-78.96
	C422.039,454.719,457.48,419.278,501,419.278L501,419.278z M501,419.278"/>
</svg>
