<?xml version="1.0" encoding="utf-8"?>
<!-- Generator: Adobe Illustrator 16.0.0, SVG Export Plug-In . SVG Version: 6.00 Build 0)  -->
<!DOCTYPE svg PUBLIC "-//W3C//DTD SVG 1.1//EN" "http://www.w3.org/Graphics/SVG/1.1/DTD/svg11.dtd">
<svg version="1.1" id="Capa_1" xmlns="http://www.w3.org/2000/svg" xmlns:xlink="http://www.w3.org/1999/xlink" x="0px" y="0px"
	 width="1000px" height="1000px" viewBox="0 0 1000 1000" enable-background="new 0 0 1000 1000" xml:space="preserve">
<g>
	<path fill="#F7F1E6" d="M590.473,366.996c-0.52,4.391-4.25,7.797-8.781,7.797h-21.07c-0.461,5.703-5.227,10.191-11.047,10.191
		h-95.629c-5.82,0-10.586-4.488-11.047-10.191h-25.3c-4.532,0-8.258-3.406-8.782-7.797C401.238,370.32,396,377.429,396,385.672
		v249.883c0,11.418,10.062,20.676,22.473,20.676h137.136v-25.207c0-12.414,9.258-22.473,20.676-22.473h27.008V385.672
		C603.293,377.429,598.055,370.32,590.473,366.996L590.473,366.996z M448.332,576.941c0,3.109-2.52,5.625-5.625,5.625h-18.562
		c-3.106,0-5.625-2.516-5.625-5.625v-18.559c0-3.105,2.519-5.625,5.625-5.625h18.562c3.105,0,5.625,2.52,5.625,5.625V576.941z
		 M448.332,532.23c0,3.105-2.52,5.621-5.625,5.621h-18.562c-3.106,0-5.625-2.516-5.625-5.621v-18.562
		c0-3.105,2.519-5.625,5.625-5.625h18.562c3.105,0,5.625,2.52,5.625,5.625V532.23z M448.332,487.515c0,3.106-2.52,5.625-5.625,5.625
		h-18.562c-3.106,0-5.625-2.519-5.625-5.625v-18.562c0-3.106,2.519-5.621,5.625-5.621h18.562c3.105,0,5.625,2.515,5.625,5.621
		V487.515z M448.332,442.801c0,3.105-2.52,5.625-5.625,5.625h-18.562c-3.106,0-5.625-2.52-5.625-5.625v-18.563
		c0-3.105,2.519-5.621,5.625-5.621h18.562c3.105,0,5.625,2.516,5.625,5.621V442.801z M581.613,581.211H462.559
		c-1.871,0-3.387-1.516-3.387-3.383c0-1.875,1.516-3.391,3.387-3.391h119.054c1.871,0,3.387,1.52,3.387,3.391
		C585,579.695,583.484,581.211,581.613,581.211L581.613,581.211z M581.613,536.5H462.559c-1.871,0-3.387-1.52-3.387-3.387
		c0-1.875,1.516-3.391,3.387-3.391h119.054c1.871,0,3.387,1.52,3.387,3.391C585,534.98,583.484,536.5,581.613,536.5L581.613,536.5z
		 M581.613,491.785H462.559c-1.871,0-3.387-1.52-3.387-3.387c0-1.871,1.516-3.39,3.387-3.39h119.054c1.871,0,3.387,1.519,3.387,3.39
		C585,490.265,583.484,491.785,581.613,491.785L581.613,491.785z M581.613,447.07H462.559c-1.871,0-3.387-1.516-3.387-3.387
		s1.516-3.386,3.387-3.386h119.054c1.871,0,3.387,1.515,3.387,3.386S583.484,447.07,581.613,447.07L581.613,447.07z M581.613,447.07
		"/>
	<path fill="#DEC8AE" d="M442.707,596.785h-18.562c-3.106,0-5.625,2.52-5.625,5.625v18.559c0,3.105,2.519,5.625,5.625,5.625h18.562
		c3.105,0,5.625-2.52,5.625-5.625V602.41C448.332,599.305,445.812,596.785,442.707,596.785L442.707,596.785z M442.707,596.785"/>
	<path fill="#DEC8AE" d="M581.613,618.465H462.559c-1.871,0-3.387,1.516-3.387,3.387s1.516,3.387,3.387,3.387h119.054
		c1.871,0,3.387-1.516,3.387-3.387S583.484,618.465,581.613,618.465L581.613,618.465z M581.613,618.465"/>
	<path fill="#E0DCD3" d="M555.609,631.02v25.211l47.684-47.684h-27.008C564.867,608.551,555.609,618.609,555.609,631.02
		L555.609,631.02z M555.609,631.02"/>
	<path fill="#77A7A2" d="M559.82,375.594h21.875c4.531,0,8.258-3.407,8.777-7.797c0.043-0.348,0.07-0.696,0.07-1.051
		c0-4.887-3.961-8.852-8.848-8.852h-21.828C559.867,357.894,559.844,375.297,559.82,375.594L559.82,375.594z M559.82,375.594"/>
	<path fill="#77A7A2" d="M417.598,375.594h26.101c-0.023-0.297-0.043-17.7-0.043-17.7h-26.058c-4.887,0-8.848,3.965-8.848,8.852
		c0,0.355,0.027,0.707,0.066,1.051C409.34,372.187,413.066,375.594,417.598,375.594L417.598,375.594z M417.598,375.594"/>
	<path fill="#DEC8AE" d="M442.707,418.617h-18.562c-3.106,0-5.625,2.516-5.625,5.621v18.563c0,3.105,2.519,5.625,5.625,5.625h18.562
		c3.105,0,5.625-2.52,5.625-5.625v-18.563C448.332,421.133,445.812,418.617,442.707,418.617L442.707,418.617z M442.707,418.617"/>
	<path fill="#DEC8AE" d="M581.613,440.293H462.559c-1.871,0-3.387,1.519-3.387,3.39s1.516,3.387,3.387,3.387h119.054
		c1.871,0,3.387-1.516,3.387-3.387S583.484,440.293,581.613,440.293L581.613,440.293z M581.613,440.293"/>
	<path fill="#DEC8AE" d="M442.707,463.328h-18.562c-3.106,0-5.625,2.519-5.625,5.625v18.562c0,3.106,2.519,5.622,5.625,5.622h18.562
		c3.105,0,5.625-2.516,5.625-5.622v-18.562C448.332,465.847,445.812,463.328,442.707,463.328L442.707,463.328z M442.707,463.328"/>
	<path fill="#DEC8AE" d="M581.613,485.008H462.559c-1.871,0-3.387,1.519-3.387,3.39c0,1.867,1.516,3.387,3.387,3.387h119.054
		c1.871,0,3.387-1.52,3.387-3.387C585,486.527,583.484,485.008,581.613,485.008L581.613,485.008z M581.613,485.008"/>
	<path fill="#DEC8AE" d="M442.707,508.043h-18.562c-3.106,0-5.625,2.52-5.625,5.625v18.562c0,3.105,2.519,5.621,5.625,5.621h18.562
		c3.105,0,5.625-2.516,5.625-5.621v-18.562C448.332,510.562,445.812,508.043,442.707,508.043L442.707,508.043z M442.707,508.043"/>
	<path fill="#DEC8AE" d="M581.613,529.723H462.559c-1.871,0-3.387,1.516-3.387,3.387s1.516,3.387,3.387,3.387h119.054
		c1.871,0,3.387-1.516,3.387-3.387S583.484,529.723,581.613,529.723L581.613,529.723z M581.613,529.723"/>
	<path fill="#DEC8AE" d="M442.707,552.758h-18.562c-3.106,0-5.625,2.52-5.625,5.625v18.559c0,3.105,2.519,5.625,5.625,5.625h18.562
		c3.105,0,5.625-2.52,5.625-5.625v-18.559C448.332,555.277,445.812,552.758,442.707,552.758L442.707,552.758z M442.707,552.758"/>
	<path fill="#DEC8AE" d="M581.613,574.438H462.559c-1.871,0-3.387,1.516-3.387,3.387s1.516,3.387,3.387,3.387h119.054
		c1.871,0,3.387-1.516,3.387-3.387S583.484,574.438,581.613,574.438L581.613,574.438z M581.613,574.438"/>
	<path fill="#81B6B2" d="M442.855,374.691c0,0.305,0.02,0.606,0.043,0.903c0.461,5.703,5.227,10.187,11.047,10.187h95.629
		c5.82,0,10.586-4.484,11.047-10.187c0.023-0.297,0.047-0.598,0.047-0.903v-19.597c0-6.129-4.969-11.094-11.094-11.094h-95.629
		c-6.125,0-11.09,4.965-11.09,11.094V374.691z M442.855,374.691"/>
	<path fill="#E74424" d="M514.43,610.184"/>
</g>
</svg>
