<?xml version="1.0" encoding="utf-8"?>
<!-- Generator: Adobe Illustrator 16.0.0, SVG Export Plug-In . SVG Version: 6.00 Build 0)  -->
<!DOCTYPE svg PUBLIC "-//W3C//DTD SVG 1.1//EN" "http://www.w3.org/Graphics/SVG/1.1/DTD/svg11.dtd">
<svg version="1.1" id="Capa_1" xmlns="http://www.w3.org/2000/svg" xmlns:xlink="http://www.w3.org/1999/xlink" x="0px" y="0px"
	 width="1000px" height="1000px" viewBox="0 0 1000 1000" enable-background="new 0 0 1000 1000" xml:space="preserve">
<g>
	<g>
		<defs>
			<rect id="SVGID_1_" x="281.48" y="407.178" width="437.04" height="185.645"/>
		</defs>
		<clipPath id="SVGID_2_">
			<use xlink:href="#SVGID_1_"  overflow="visible"/>
		</clipPath>
		<path clip-path="url(#SVGID_2_)" d="M715.352,440.761c-5.248-17.484-21.65-29.7-39.893-29.7c-4.041,0-8.076,0.594-11.984,1.767
			c-16.475,4.945-28.242,19.758-29.561,36.707c-0.693,0.152-1.365,0.33-2.018,0.529c-17.107,5.128-26.852,23.224-21.723,40.325
			c0.514,1.715,1.188,3.402,2.004,5.05c-4.832,5.544-6.566,13.245-4.41,20.438c2.73,9.083,11.254,15.432,20.734,15.432
			c2.102,0,4.199-0.308,6.229-0.916c8.32-2.497,14.24-9.704,15.256-18.13c0.178-0.051,0.35-0.099,0.521-0.151
			c9.123-2.735,16.52-9.342,20.324-17.97c1.535,0.17,3.084,0.256,4.621,0.256c4.041,0,8.068-0.587,11.965-1.76
			c10.654-3.197,19.436-10.35,24.709-20.152C717.408,462.687,718.549,451.42,715.352,440.761L715.352,440.761z M715.352,440.761"/>
	</g>
	<path d="M597.412,520.997h-3.857v-31.75c0-7.396-6.012-13.447-13.408-13.501l-5.77-0.046c-5.254-0.033-11.879-3.922-14.471-8.49
		l-27.951-49.22c-3.449-6.065-11.604-10.812-18.578-10.812H390.024c-6.921,0-15.281,4.557-19.039,10.371l-32.824,50.873
		c-2.967,4.602-9.981,9.526-15.307,10.766l-28.777,6.666c-6.948,1.615-12.598,8.728-12.598,15.854v50.156
		c0,7.398,6.018,13.422,13.422,13.422h21.438c4.55,15.611,18.979,27.056,36.035,27.056c17.062,0,31.486-11.444,36.034-27.056h81.049
		c4.549,15.611,18.973,27.056,36.034,27.056c17.055,0,31.486-11.444,36.035-27.056h38.605c7.396,0,13.422-6.023,13.422-13.422
		v-8.386h3.857c3.936,0,8.629-1.951,8.629-11.24S601.348,520.997,597.412,520.997L597.412,520.997z M352.375,573.447
		c-10.298,0-18.644-8.345-18.644-18.644c0-10.298,8.345-18.644,18.644-18.644c10.297,0,18.645,8.346,18.645,18.644
		C371.02,565.103,362.672,573.447,352.375,573.447L352.375,573.447z M442.805,479.201h-78.102c-4.905,0-6.828-3.42-4.272-7.608
		l23.787-38.961c2.559-4.185,8.662-7.607,13.567-7.607h45.02V479.201z M505.492,573.447c-10.297,0-18.643-8.345-18.643-18.644
		c0-10.298,8.345-18.644,18.643-18.644c10.297,0,18.645,8.346,18.645,18.644C524.137,565.103,515.789,573.447,505.492,573.447
		L505.492,573.447z M532.68,479.201h-68.423v-54.176h39.232c4.904,0,10.818,3.526,13.145,7.844l20.734,38.481
		C539.693,475.667,537.584,479.201,532.68,479.201L532.68,479.201z M532.68,479.201"/>
</g>
</svg>
